<svg width="1893" height="1661" viewBox="0 0 1893 1661" fill="none" xmlns="http://www.w3.org/2000/svg">
<path d="M1419.73 811.072C1432.13 794.1 1447.67 785.828 1460.43 774.581C1473.77 762.844 1488.74 752.86 1503.52 742.89C1517.68 733.354 1532.5 724.837 1548.83 714.758C1544.7 712.055 1542.42 709.338 1539.93 709.161C1535.66 708.876 1530.97 709.42 1526.96 710.941C1519.83 713.63 1512.62 716.592 1506.23 720.708C1482.66 735.894 1459.56 751.801 1436.03 767.042C1420.53 777.08 1404.61 786.48 1388.84 796.057C1385.03 798.366 1380.76 799.969 1377.06 802.441C1362.97 811.879 1347.36 812.987 1331.19 811.05C1330.07 810.916 1329.07 809.815 1327.42 808.803C1328.01 801.408 1332.52 795.975 1337.71 791.547C1363.88 769.229 1390.12 746.992 1416.7 725.163C1432.96 711.824 1449.9 699.313 1466.47 686.368C1467.95 685.227 1469.18 683.692 1470.32 682.198C1472.1 679.888 1469.99 674.781 1467.04 674.645C1463.93 674.482 1460.58 674.306 1457.74 675.297C1443.86 680.119 1430.03 685.336 1418.2 694.246C1400.9 707.3 1383.41 719.92 1365.32 731.914C1332.94 753.376 1301.87 776.822 1270.77 800.145C1261.55 807.062 1252.31 810.561 1240.89 810.095C1223.77 809.394 1206.62 809.761 1189.96 807.207C1187.84 802.291 1191.39 801.055 1193.62 799.181C1204.33 790.148 1215.15 781.223 1225.81 772.122C1243.75 756.84 1261.71 741.912 1282.01 729.415C1298.92 718.996 1316.07 709.61 1334.15 701.65C1336.97 700.413 1339.8 698.417 1341.6 696.012C1342.87 694.314 1343.38 690.905 1342.54 689.017C1341.69 687.169 1338.58 684.969 1336.71 685.159C1314.88 687.414 1293.06 691.747 1276.22 706.363C1249.98 729.116 1219.58 745.43 1191.02 764.597C1177.76 773.508 1164.25 781.889 1153.44 793.883C1146.73 801.354 1138.94 805.571 1128.24 804.56C1112.4 803.052 1096.44 802.685 1080.55 801.585C1076.89 801.327 1073.32 800.023 1068.29 798.882C1069.53 795.106 1069.99 792.077 1071.44 789.631C1085.91 765.058 1107.17 746.612 1127.84 727.662C1141.85 714.826 1156.14 702.288 1169.59 690.239C1169.1 684.127 1165.62 683.312 1162.67 684.371C1156.74 686.49 1150.47 688.664 1145.53 692.385C1118.05 713.101 1090.95 734.318 1063.65 755.265C1054.53 762.247 1045.26 769.011 1035.94 775.694C1030.61 779.511 1024.77 781.753 1017.98 780.544C991.015 775.735 963.747 772.394 937.523 764.067C934.224 763.021 931.296 760.82 926.175 758.063C930.411 755.876 932.388 754.273 934.606 753.798C961.535 748.024 986.899 737.619 1012.68 728.342C1050.62 714.704 1085.27 694.111 1121.96 677.837C1144.17 667.989 1166.82 659.866 1189.95 652.476C1227.67 640.414 1266.41 632.59 1304.54 622.28C1321.89 617.58 1339.64 616.099 1357.5 614.972C1398.54 612.405 1439.05 615.189 1478.94 625.295C1519.15 635.47 1555.31 654.011 1587.67 679.576C1620.21 705.276 1650.99 733.096 1680.24 762.491C1697.33 779.661 1714.02 797.225 1730.55 814.927C1761.42 847.972 1791.55 881.733 1827.15 912.359C1825.22 913.586 1822.41 915.333 1818.98 917.359C1797.7 929.705 1774.61 939.052 1774.61 939.052C1737.82 953.919 1687.32 982.973 1627.11 1003.44C1532.31 1035.68 1450.36 1034.11 1427.77 1033.27C1368.28 1031.07 1324.14 1019.43 1290.33 1010.28C1267.82 1004.19 1192.5 982.652 1106.16 932C1059.45 904.612 1024.21 877.306 986.818 848.346C955.548 824.125 930.1 802.522 911.646 786.29C914.315 782.296 917.432 784.442 919.9 785.176C940.673 791.343 961.294 798.013 982.145 803.881C991.151 806.417 998.581 810.635 1004.22 817.986C1019.83 838.4 1039.58 854.666 1058.39 871.839C1063.53 876.506 1069.52 880.278 1075.37 884.093C1078.01 885.799 1081.24 886.585 1085.19 883.306C1080.61 872.332 1072.59 863.493 1065.77 853.772C1058.89 843.999 1053.6 833.132 1047.88 823.197C1051.42 817.784 1055.48 820.143 1058.89 820.696C1080.29 824.156 1101.45 829.084 1123.32 828.894C1128.67 828.845 1132.78 831.318 1136.74 835.066C1152.05 849.506 1167.88 863.359 1183.2 877.772C1193.4 887.385 1202.85 897.799 1213.04 907.425C1228.31 921.853 1243.79 936.065 1259.48 950.053C1264.82 954.826 1270.64 954.759 1272.86 950.933C1275.64 946.173 1273.31 942.399 1270.12 938.986C1266.66 935.265 1262.95 931.746 1259.54 927.972C1234.35 900.052 1209.18 872.106 1184.09 844.093C1182.45 842.266 1181.55 839.773 1180.55 838.04C1181.51 832.4 1185.41 831.719 1189.28 831.679C1210.32 831.479 1231.37 831.52 1252.41 831.346C1258.55 831.306 1263.52 833.707 1267.82 837.839C1269.67 839.599 1271.47 841.413 1273.27 843.226C1295.25 865.412 1317.38 887.466 1339.17 909.866C1350.35 921.373 1363.01 930.973 1376.02 940.199C1378.1 941.666 1380.3 943.026 1382.62 944.039C1386.13 945.586 1389.83 946.919 1393.12 943.466C1395.42 941.066 1394.47 936.893 1390.42 933.666C1365.87 914.053 1345.13 890.84 1325.11 866.772C1317.79 857.986 1309.35 850.146 1303.7 840.026C1302.53 837.933 1301.81 835.573 1300.38 832.093C1304.84 830.906 1308.3 829.122 1311.74 829.205C1328.95 829.622 1346.13 830.585 1363.35 831.226C1369.43 831.439 1374.46 833.852 1378.76 837.919C1398.83 856.84 1423.25 869.826 1444.96 886.507C1453.05 892.718 1461.73 898.172 1469.67 904.573C1479.73 912.719 1491.11 918.279 1502.95 923.16C1504.71 923.879 1506.48 924.666 1508.31 925.186C1517.94 927.986 1526.34 926.399 1526.99 921.413C1528.05 913.425 1521.68 910.385 1516.22 907.333C1487.6 891.359 1463.35 869.56 1438.11 849.093C1434.92 846.507 1432.64 842.812 1428.32 837.706C1433.89 837.613 1436.96 837.093 1439.88 837.586C1461.24 841.199 1482.54 845.159 1503.92 848.692C1513.02 850.185 1520.74 853.653 1527.57 860.052C1537.34 869.199 1548.14 877.24 1557.89 886.372C1572.05 899.6 1588.66 909.066 1605.16 918.705C1608.91 920.879 1613.37 922.44 1617.65 922.892C1620.27 923.173 1624.47 921.479 1625.58 919.399C1626.61 917.439 1625.2 913.333 1623.61 911.052C1621.88 908.586 1618.56 907.279 1616.17 905.185C1604.17 894.706 1592.2 884.173 1580.36 873.519C1579.12 872.4 1578.77 870.293 1577.82 868.226C1584.12 865.692 1589.47 868.425 1594.7 869.88C1643.29 883.412 1692.64 893.066 1742.63 899.479C1747.02 900.052 1751.5 900.226 1755.89 899.972C1757.38 899.88 1759.8 898.025 1760 896.719C1760.32 894.533 1759.96 891.053 1758.52 890.04C1753.9 886.759 1748.97 883.318 1743.62 881.812C1720.39 875.266 1697.76 866.973 1673.42 863.759C1647.6 860.359 1622.28 853.066 1596.74 847.518C1589.28 845.906 1581.72 844.705 1574.34 842.839C1570.12 841.773 1569.03 836.373 1572.51 833.773C1578.1 829.599 1583.8 825.372 1589.98 822.189C1607.53 813.15 1625.33 804.628 1643.05 795.907C1645.9 794.508 1649.15 793.571 1651.46 791.547C1653.09 790.134 1654.12 787.254 1654.13 785.027C1654.16 781.468 1651.51 778.819 1648.11 778.846C1643.08 778.914 1637.98 779.634 1633.06 780.761C1598.11 788.83 1564.94 802.074 1532.68 817.424C1519.86 823.528 1507.66 824.622 1493.87 822.008C1474.5 818.338 1454.78 816.531 1435.22 813.85C1430.95 813.263 1426.73 812.338 1419.73 811.072" fill="black"/>
<path d="M1419.74 811.07C1426.73 812.336 1430.95 813.26 1435.22 813.848C1454.78 816.528 1474.5 818.335 1493.87 822.007C1507.66 824.62 1519.86 823.526 1532.69 817.422C1564.96 802.076 1598.11 788.834 1633.08 780.763C1637.98 779.632 1643.09 778.907 1648.11 778.848C1651.51 778.812 1654.17 781.468 1654.14 785.024C1654.13 787.255 1653.09 790.138 1651.45 791.549C1649.15 793.566 1645.9 794.5 1643.05 795.903C1625.34 804.627 1607.52 813.147 1589.98 822.186C1583.81 825.368 1578.12 829.597 1572.51 833.771C1569.03 836.371 1570.13 841.77 1574.36 842.837C1581.73 844.703 1589.28 845.903 1596.74 847.516C1622.29 853.064 1647.61 860.357 1673.42 863.757C1697.77 866.958 1720.39 875.263 1743.63 881.809C1748.98 883.317 1753.91 886.757 1758.53 890.037C1759.97 891.05 1760.32 894.53 1760 896.717C1759.8 898.024 1757.4 899.877 1755.9 899.971C1751.49 900.224 1747.02 900.051 1742.63 899.477C1692.65 893.064 1643.3 883.411 1594.71 869.877C1589.48 868.423 1584.12 865.69 1577.82 868.223C1578.78 870.291 1579.12 872.397 1580.37 873.516C1592.2 884.171 1604.18 894.703 1616.16 905.184C1618.57 907.277 1621.89 908.583 1623.62 911.051C1625.2 913.331 1626.61 917.437 1625.58 919.397C1624.47 921.477 1620.28 923.171 1617.65 922.89C1613.37 922.438 1608.9 920.877 1605.17 918.703C1588.66 909.064 1572.05 899.598 1557.89 886.371C1548.14 877.237 1537.34 869.197 1527.58 860.05C1520.74 853.65 1513.03 850.184 1503.93 848.69C1482.55 845.156 1461.24 841.197 1439.88 837.584C1436.97 837.09 1433.88 837.61 1428.32 837.704C1432.65 842.809 1434.93 846.503 1438.12 849.09C1463.35 869.556 1487.6 891.357 1516.22 907.33C1521.68 910.383 1528.06 913.424 1526.99 921.411C1526.34 926.398 1517.96 927.984 1508.31 925.184C1506.49 924.663 1504.71 923.89 1502.95 923.157C1491.11 918.277 1479.74 912.717 1469.67 904.57C1461.74 898.171 1453.05 892.717 1444.97 886.504C1423.26 869.824 1398.82 856.837 1378.77 837.916C1374.46 833.85 1369.44 831.437 1363.35 831.223C1346.13 830.583 1328.96 829.619 1311.74 829.202C1308.31 829.12 1304.84 830.903 1300.39 832.091C1301.82 835.571 1302.53 837.93 1303.7 840.023C1309.35 850.143 1317.79 857.983 1325.11 866.77C1345.14 890.837 1365.87 914.05 1390.42 933.664C1394.47 936.89 1395.41 941.064 1393.12 943.464C1389.83 946.918 1386.12 945.583 1382.61 944.038C1380.29 943.023 1378.1 941.664 1376.01 940.197C1363 930.97 1350.36 921.371 1339.17 909.864C1317.38 887.463 1295.26 865.411 1273.27 843.223C1271.47 841.411 1269.68 839.596 1267.83 837.837C1263.52 833.703 1258.56 831.303 1252.4 831.344C1231.37 831.517 1210.33 831.476 1189.29 831.677C1185.42 831.717 1181.51 832.397 1180.55 838.037C1181.56 839.77 1182.45 842.264 1184.1 844.091C1209.19 872.103 1234.34 900.051 1259.54 927.97C1262.95 931.744 1266.66 935.263 1270.12 938.984C1273.31 942.397 1275.65 946.171 1272.87 950.931C1270.64 954.77 1264.82 954.823 1259.48 950.051C1243.8 936.063 1228.32 921.85 1213.04 907.424C1202.86 897.797 1193.42 887.384 1183.21 877.77C1167.89 863.357 1152.06 849.504 1136.75 835.063C1132.78 831.317 1128.67 828.843 1123.33 828.892C1101.46 829.082 1080.29 824.154 1058.9 820.695C1055.49 820.141 1051.43 817.781 1047.89 823.194C1053.6 833.13 1058.9 843.997 1065.77 853.77C1072.59 863.49 1080.62 872.33 1085.19 883.303C1081.25 886.584 1078.01 885.797 1075.38 884.091C1069.53 880.277 1063.53 876.504 1058.39 871.838C1039.58 854.664 1019.83 838.398 1004.22 817.985C998.589 810.632 991.151 806.414 982.15 803.883C961.297 798.017 940.675 791.336 919.903 785.178C917.433 784.445 914.318 782.289 911.648 786.294C936.048 807.905 960.044 829.627 986.817 848.343C1023.97 874.316 1061.51 899.61 1101.28 921.33C1119.7 931.383 1138.82 940.49 1158.41 947.997C1200.9 964.29 1246.02 970.317 1290.25 979.784C1292.11 980.17 1294.06 980.264 1295.96 980.397C1327.12 982.583 1358.3 984.677 1389.45 986.984C1406.1 988.21 1422.59 986.931 1439.04 984.638C1466.16 980.838 1493.27 976.878 1520.39 973.051C1557.01 967.891 1593.92 964.343 1630.17 957.291C1676.45 948.277 1723.53 943.397 1769.01 930.211C1785.53 925.41 1802.37 921.797 1819 917.358C1821.61 916.664 1823.85 914.437 1827.15 912.357C1791.55 881.73 1761.43 847.971 1730.57 814.925C1714.04 797.22 1697.33 779.655 1680.24 762.487C1650.99 733.099 1620.22 705.278 1587.67 679.568C1555.32 654.013 1519.15 635.466 1478.95 625.297C1439.04 615.184 1398.53 612.4 1357.51 614.974C1339.64 616.093 1321.89 617.575 1304.55 622.275C1266.42 632.584 1227.67 640.417 1189.95 652.474C1166.81 659.86 1144.18 667.987 1121.97 677.834C1085.26 694.102 1050.63 714.705 1012.68 728.343C986.897 737.617 961.536 748.024 934.609 753.787C932.39 754.262 930.414 755.871 926.177 758.067C931.298 760.808 934.227 763.018 937.525 764.067C963.75 772.387 991.016 775.728 1017.97 780.542C1024.78 781.755 1030.62 779.506 1035.93 775.695C1045.26 769.009 1054.53 762.249 1063.64 755.269C1090.94 734.316 1118.05 713.097 1145.54 692.381C1150.49 688.66 1156.74 686.492 1162.67 684.366C1165.62 683.317 1169.09 684.114 1169.6 690.241C1156.14 702.284 1141.86 714.831 1127.84 727.658C1107.18 746.611 1085.91 765.056 1071.45 789.626C1069.99 792.073 1069.54 795.099 1068.3 798.881C1073.32 800.021 1076.9 801.328 1080.55 801.579C1096.44 802.686 1112.4 803.045 1128.25 804.553C1138.95 805.569 1146.73 801.354 1153.44 793.878C1164.25 781.884 1177.76 773.499 1191.02 764.585C1219.57 745.436 1249.98 729.113 1276.22 706.355C1293.06 691.738 1314.89 687.402 1336.71 685.164C1338.59 684.968 1341.7 687.164 1342.54 689.01C1343.38 690.898 1342.89 694.311 1341.6 696.018C1339.8 698.424 1336.96 700.41 1334.15 701.641C1316.07 709.6 1298.93 718.999 1282 729.406C1261.7 741.897 1243.74 756.836 1225.81 772.127C1215.15 781.219 1204.34 790.142 1193.61 799.174C1191.39 801.049 1187.85 802.296 1189.96 807.205C1206.62 809.757 1223.78 809.393 1240.89 810.092C1252.3 810.56 1261.55 807.06 1270.78 800.137C1301.88 776.819 1332.96 753.381 1365.32 731.91C1383.42 719.909 1400.91 707.292 1418.2 694.255C1430.03 685.331 1443.86 680.114 1457.74 675.288C1460.58 674.295 1463.94 674.477 1467.04 674.631C1469.99 674.785 1472.09 679.89 1470.33 682.198C1469.18 683.695 1467.95 685.219 1466.47 686.366C1449.89 699.305 1432.97 711.824 1416.71 725.168C1390.12 746.989 1363.88 769.221 1337.71 791.546C1332.52 795.973 1328.02 801.405 1327.42 808.801C1329.07 809.812 1330.08 810.913 1331.19 811.046C1347.36 812.984 1362.96 811.877 1377.07 802.44C1380.77 799.972 1385.03 798.368 1388.84 796.054C1404.62 786.471 1420.53 777.073 1436.03 767.04C1459.56 751.8 1482.67 735.896 1506.24 720.706C1512.61 716.594 1519.83 713.628 1526.97 710.929C1530.98 709.418 1535.65 708.872 1539.95 709.166C1542.42 709.334 1544.72 712.048 1548.83 714.761C1532.5 724.832 1517.69 733.351 1503.52 742.89C1488.74 752.849 1473.77 762.837 1460.43 774.578C1447.67 785.824 1432.14 794.095 1419.74 811.07V811.07ZM1569.63 639.032C1601.52 657.51 1626.68 677.904 1649.4 701.459C1659.13 711.544 1669.97 720.552 1679.65 730.679C1707.38 759.703 1734.58 789.237 1762.33 818.24C1783.95 840.823 1807.28 861.69 1832.01 880.756C1841.98 888.437 1853.95 893.544 1865.02 899.837C1872.19 903.904 1879.52 907.756 1886.46 912.21C1890.27 914.65 1892.98 918.356 1892.07 923.49C1891.13 928.744 1887.13 930.597 1882.64 931.73C1878.68 932.73 1876.75 933.424 1873.26 933.571C1859.56 934.144 1807.16 959.33 1802.55 961.544C1785.65 969.624 1767.83 975.598 1750.5 982.691C1660.52 1019.53 1549.33 1065.06 1423.35 1060.65C1393.31 1059.6 1349.78 1055.26 1297.53 1039.62C1297.53 1039.62 1155.29 998.943 1053 925.69C991.857 881.917 1023.61 911.516 952.977 852.57C922.158 826.852 891.269 801.217 860.642 775.274C854.903 770.414 849.823 764.599 845.232 758.626C842.187 754.654 843.767 749.94 847.979 747.003C850.041 745.562 852.266 744.191 854.618 743.352C904.511 725.783 954.51 708.481 1004.32 690.703C1030.14 681.485 1055.58 671.274 1081.31 661.79C1118.39 648.124 1155.36 634.123 1192.75 621.38C1219.88 612.134 1247.58 604.539 1275.1 596.538C1282.43 594.412 1290.06 593.237 1297.61 592.146C1310.86 590.216 1324.12 588.215 1337.45 587.11C1373.12 584.173 1408.69 583.949 1443.78 592.58C1446.24 593.181 1448.77 593.615 1451.28 593.992C1495.45 600.594 1536.64 614.834 1569.63 639.032" fill="white"/>
<path d="M990.027 1257.33C982.093 1270.04 976 1284.27 969.893 1298.32C964.053 1311.76 959.213 1325.83 953.28 1341.31C950.16 1337.51 947.373 1335.39 946.787 1333.07C945.757 1329.05 945.405 1324.65 946.02 1320.87C947.107 1314.12 948.427 1307.28 950.893 1301.23C960.027 1278.85 969.867 1256.89 979.053 1234.55C985.093 1219.83 990.507 1204.73 996.107 1189.75C997.453 1186.13 998.107 1182.11 999.613 1178.6C1005.37 1165.2 1003.57 1150.53 998.973 1135.37C998.667 1134.33 997.52 1133.41 996.333 1131.88C989.947 1132.56 985.987 1136.89 983.013 1141.84C968.08 1166.77 953.24 1191.79 938.832 1217.12C930.021 1232.6 922.057 1248.71 913.649 1264.48C912.903 1265.88 911.785 1267.07 910.675 1268.17C908.964 1269.87 904.109 1267.99 903.451 1265.21C902.763 1262.31 902 1259.15 902.36 1256.47C904.127 1243.36 906.235 1230.28 911.953 1219.04C920.321 1202.59 928.277 1185.95 935.584 1168.76C948.653 1138.01 963.693 1108.44 978.613 1078.85C983.04 1070.08 984.467 1061.33 982.027 1050.64C978.347 1034.59 975.613 1018.45 970.4 1002.88C965.707 1000.96 965.24 1004.31 964 1006.43C957.973 1016.64 952.067 1026.95 945.992 1037.12C935.772 1054.21 925.861 1071.32 918.515 1090.59C912.389 1106.64 907.201 1122.89 903.444 1140.01C902.863 1142.67 901.621 1145.36 899.832 1147.09C898.559 1148.33 895.656 1148.85 893.847 1148.08C892.072 1147.33 889.587 1144.45 889.423 1142.69C887.501 1122.16 887.413 1101.6 897.239 1085.55C912.541 1060.52 921.441 1031.71 933.167 1004.6C938.621 991.987 943.569 979.16 952.173 968.813C957.533 962.373 959.853 955 957.053 944.973C952.893 930.133 949.733 915.16 945.924 900.253C945.051 896.827 943.263 893.493 941.364 888.787C938.267 890.027 935.691 890.507 933.8 891.893C914.807 905.893 902.405 926.173 889.463 945.893C880.688 959.267 872.227 972.88 864.053 985.72C858.589 985.36 857.26 982.093 857.659 979.32C858.465 973.72 859.252 967.8 861.639 963.107C874.919 936.947 888.723 911.147 902.239 885.16C906.744 876.493 911.023 867.667 915.229 858.8C917.628 853.747 918.561 848.227 916.28 841.867C907.24 816.64 899.439 791.093 887.447 766.613C885.94 763.547 883.483 760.827 880.155 756.067C878.985 760.08 877.927 761.96 877.908 764.053C877.653 789.427 873.039 813.413 869.499 837.773C864.293 873.627 852.393 906.493 844.656 941.213C839.971 962.24 836.884 983.627 834.524 1005.47C830.673 1041.08 830.715 1077.59 828.461 1113.56C827.436 1129.92 829.303 1146.61 831.511 1163.4C836.577 1201.95 846.251 1239.93 862.248 1277.23C878.357 1314.79 901.103 1348.43 929.321 1378.37C957.693 1408.49 987.613 1436.91 1018.65 1463.88C1036.77 1479.64 1055.19 1495.01 1073.68 1510.23C1108.2 1538.65 1143.23 1566.36 1176.47 1599.25C1177.71 1596.12 1179.27 1594 1179.41 1591.52C1180.33 1575.84 1180.51 1559.96 1181.76 1544.39C1185.24 1501.47 1181.12 1457.19 1180.77 1413.59C1180.49 1379.44 1177.01 1344.73 1175.01 1310.27C1173.52 1284.75 1172.17 1259.24 1170.65 1233.71C1169.75 1218.23 1167.92 1202.72 1163.87 1187.11C1156.28 1157.91 1148.88 1128.68 1141.39 1099.45C1140.93 1097.67 1140.52 1095.85 1139.83 1094.11C1123.63 1052.75 1110.28 1010.48 1088.39 970.867C1078.29 952.627 1066.89 934.827 1054.77 917.707C1028.6 880.733 999.693 845.92 970.253 811.48C949.04 786.653 925.681 764.493 902.348 741.947C899.311 744.52 901.759 747.413 902.843 749.72C911.959 769.12 921.504 788.36 930.38 807.84C934.209 816.24 939.241 823.16 946.707 828.307C967.413 842.627 985.227 860.893 1003.65 878.267C1008.68 883 1013.07 888.573 1017.44 894C1019.41 896.44 1020.69 899.467 1018.51 903.227C1008.07 899.12 998.867 891.733 989.12 885.493C979.307 879.213 968.813 874.427 959.067 869.227C954.947 872.64 957.747 876.413 958.84 879.6C965.693 899.613 973.8 919.413 977.547 939.947C978.453 944.96 981.36 948.773 985.36 952.453C1000.76 966.573 1015.77 981.2 1031.16 995.333C1041.41 1004.76 1052.24 1013.44 1062.51 1022.85C1077.91 1036.95 1093.15 1051.24 1108.23 1065.72C1113.39 1070.67 1114.36 1076.12 1111.4 1078.28C1107.71 1080.96 1103.99 1078.83 1100.41 1075.89C1096.53 1072.71 1092.77 1069.28 1088.85 1066.15C1059.84 1042.97 1030.81 1019.83 1001.73 996.747C999.84 995.24 997.493 994.427 995.773 993.507C991 994.507 991.107 998.187 991.76 1001.81C995.347 1021.57 999.133 1041.32 1002.75 1061.08C1003.8 1066.85 1006.8 1071.48 1011.19 1075.45C1013.07 1077.15 1014.97 1078.81 1016.89 1080.47C1040.29 1100.73 1063.61 1121.13 1087.17 1141.2C1099.27 1151.52 1109.96 1163.23 1120.39 1175.29C1122.04 1177.21 1123.63 1179.27 1124.93 1181.41C1126.92 1184.69 1128.75 1188.15 1126.31 1191.29C1124.61 1193.48 1120.79 1192.67 1117.21 1188.92C1095.63 1166.21 1071.53 1147.13 1046.83 1128.73C1037.8 1122.01 1029.4 1114.23 1019.52 1109.09C1017.47 1108.03 1015.27 1107.4 1011.96 1106.11C1011.71 1110.32 1010.76 1113.6 1011.45 1116.83C1014.88 1132.96 1018.8 1149.09 1022.43 1165.23C1023.72 1170.95 1026.73 1175.61 1031.07 1179.59C1051.27 1198.11 1067.03 1220.81 1085.55 1240.92C1092.45 1248.4 1098.79 1256.48 1105.83 1263.8C1114.77 1273.12 1121.69 1283.71 1128.08 1294.73C1129.04 1296.37 1130.03 1298.03 1130.83 1299.73C1135 1308.75 1135.11 1316.63 1130.84 1317.33C1124.01 1318.47 1120.21 1312.53 1116.56 1307.45C1097.41 1280.87 1073.95 1258.47 1051.48 1235.12C1048.63 1232.17 1044.97 1230.09 1039.73 1226.12C1040.64 1231.35 1040.73 1234.24 1041.68 1236.97C1048.67 1256.96 1055.95 1276.91 1062.87 1296.91C1065.81 1305.43 1070.23 1312.6 1077.07 1318.92C1086.84 1327.93 1095.83 1337.92 1105.59 1346.93C1119.72 1360 1131 1375.43 1142.41 1390.76C1145 1394.24 1147.17 1398.4 1148.32 1402.41C1149.04 1404.88 1148.29 1408.84 1146.67 1409.92C1145.13 1410.92 1141.28 1409.67 1139 1408.21C1136.51 1406.63 1134.77 1403.53 1132.52 1401.32C1121.16 1390.24 1109.79 1379.19 1098.31 1368.25C1097.11 1367.11 1095.2 1366.81 1093.21 1365.95C1092.11 1371.91 1095.47 1376.88 1097.68 1381.77C1118.23 1427.16 1135.52 1473.32 1150.08 1520.15C1151.36 1524.24 1152.32 1528.45 1152.87 1532.57C1153.05 1533.99 1151.87 1536.28 1150.76 1536.48C1148.89 1536.83 1145.77 1536.55 1144.61 1535.23C1140.92 1530.95 1137.01 1526.36 1134.75 1521.37C1124.84 1499.67 1113.52 1478.56 1106.36 1455.77C1098.76 1431.59 1087.84 1407.95 1078.4 1384.05C1075.65 1377.08 1073.25 1370.01 1070.29 1363.11C1068.6 1359.17 1063.68 1358.24 1062.01 1361.55C1059.35 1366.87 1056.65 1372.28 1054.96 1378.13C1050.15 1394.76 1045.85 1411.63 1041.36 1428.4C1040.63 1431.09 1040.39 1434.17 1039.03 1436.37C1038.08 1437.91 1035.73 1438.95 1033.77 1439C1030.67 1439.08 1027.85 1436.63 1027.28 1433.44C1026.44 1428.72 1026.16 1423.92 1026.28 1419.29C1027.12 1386.33 1032.83 1354.97 1040.55 1324.43C1043.61 1312.28 1042.4 1300.83 1037.64 1287.92C1030.96 1269.8 1025.85 1251.31 1020.01 1233C1018.73 1229 1017.17 1225.05 1014.8 1218.51C1002.11 1230.43 997.627 1245.15 990.027 1257.33V1257.33ZM829.819 1251.79C829.039 1249.43 828.215 1247.07 827.241 1244.75C813.403 1211.95 807.251 1178.55 803.461 1145.03C802.045 1132.51 801.444 1120.01 800.765 1107.55C800.379 1100.44 800.053 1093.25 800.612 1086.35C802.72 1060.37 804.444 1034.24 807.721 1008.61C812.237 973.307 817.931 938.36 823.316 903.32C827.052 879.013 831.472 854.947 834.955 830.56C841.68 783.493 847.943 736.267 854.468 689.133C854.776 686.907 855.587 684.8 856.481 682.84C858.309 678.84 862.165 677.28 866.195 680.067C872.265 684.28 878.275 688.947 883.568 694.253C911.815 722.573 939.84 751.133 967.92 779.627C996.867 809 1026.27 837.547 1049.99 872.293C1073 905.987 1096.13 939.507 1116.56 974.653C1139.88 1014.76 1161.29 1055.4 1173.03 1099.69C1182.67 1136.11 1191.56 1172.49 1195.91 1208.95C1200.12 1244.17 1202.88 1279.35 1205.23 1314.41C1207.32 1345.93 1207.48 1377.13 1205.48 1407.99C1202.81 1449.17 1200.69 1490.53 1203.39 1532.88C1204.23 1545.92 1204.08 1558.85 1204.03 1571.77C1203.93 1595.27 1203.56 1618.72 1203.33 1642.2C1203.29 1645.13 1203.53 1648.13 1203.4 1651.04C1203.2 1655.27 1202.29 1659.05 1197.84 1660.01C1193.49 1660.96 1189.76 1658.48 1186.93 1654.95C1181.79 1648.51 1177.09 1641.69 1172.24 1635.03C1164.73 1624.75 1158.12 1613.59 1149.59 1604.36C1128.43 1581.45 1105.96 1559.92 1082.25 1540C1051.84 1514.44 1021.05 1489.4 990.613 1463.87C979.987 1454.95 970.147 1444.92 959.56 1435.96C934.819 1415.01 912.417 1391.75 890.5 1362.12C863.361 1331.56 843.499 1293.12 829.819 1251.79" fill="white"/>
<path d="M1014.8 1218.51C1002.11 1230.43 997.627 1245.15 990.027 1257.33C982.093 1270.04 976 1284.27 969.893 1298.32C964.053 1311.76 959.213 1325.83 953.28 1341.31C950.16 1337.51 947.373 1335.39 946.787 1333.07C945.757 1329.05 945.405 1324.65 946.02 1320.87C947.107 1314.12 948.427 1307.28 950.893 1301.23C960.027 1278.85 969.867 1256.89 979.053 1234.55C985.093 1219.83 990.507 1204.73 996.107 1189.75C997.453 1186.13 998.107 1182.11 999.613 1178.6C1005.37 1165.2 1003.57 1150.53 998.973 1135.37C998.667 1134.33 997.52 1133.41 996.333 1131.88C989.947 1132.56 985.987 1136.89 983.013 1141.84C968.08 1166.77 953.24 1191.79 938.832 1217.12C930.021 1232.6 922.057 1248.71 913.649 1264.48C912.903 1265.88 911.785 1267.07 910.675 1268.17C908.964 1269.87 904.109 1267.99 903.451 1265.21C902.763 1262.31 902 1259.15 902.36 1256.47C904.127 1243.36 906.235 1230.28 911.953 1219.04C920.321 1202.59 928.277 1185.95 935.584 1168.76C948.653 1138.01 963.693 1108.44 978.613 1078.85C983.04 1070.08 984.467 1061.33 982.027 1050.64C978.347 1034.59 975.613 1018.45 970.4 1002.88C965.707 1000.96 965.24 1004.31 964 1006.43C957.973 1016.64 952.067 1026.95 945.992 1037.12C935.772 1054.21 925.861 1071.32 918.515 1090.59C912.389 1106.64 907.201 1122.89 903.444 1140.01C902.863 1142.67 901.621 1145.36 899.832 1147.09C898.559 1148.33 895.656 1148.85 893.847 1148.08C892.072 1147.33 889.587 1144.45 889.423 1142.69C887.501 1122.16 887.413 1101.6 897.239 1085.55C912.541 1060.52 921.441 1031.71 933.167 1004.6C938.621 991.987 943.569 979.16 952.173 968.813C957.533 962.373 959.853 955 957.053 944.973C952.893 930.133 949.733 915.16 945.924 900.253C945.051 896.827 943.263 893.493 941.364 888.787C938.267 890.027 935.691 890.507 933.8 891.893C914.807 905.893 902.405 926.173 889.463 945.893C880.688 959.267 872.227 972.88 864.053 985.72C858.589 985.36 857.26 982.093 857.659 979.32C858.465 973.72 859.252 967.8 861.639 963.107C874.919 936.947 888.723 911.147 902.239 885.16C906.744 876.493 911.023 867.667 915.229 858.8C917.628 853.747 918.561 848.227 916.28 841.867C907.24 816.64 899.439 791.093 887.447 766.613C885.94 763.547 883.483 760.827 880.155 756.067C878.985 760.08 877.927 761.96 877.908 764.054C877.653 789.427 873.039 813.413 869.499 837.773C864.293 873.627 852.393 906.493 844.656 941.213C839.971 962.24 836.884 983.627 834.524 1005.47C830.673 1041.08 830.715 1077.59 828.461 1113.56C827.436 1129.92 829.303 1146.61 831.511 1163.4C836.577 1201.95 846.251 1239.93 862.248 1277.23C878.357 1314.79 901.103 1348.43 929.321 1378.37C957.693 1408.49 987.613 1436.91 1018.65 1463.88C1036.77 1479.64 1055.19 1495.01 1073.68 1510.23C1108.2 1538.65 1143.23 1566.36 1176.47 1599.25C1177.71 1596.12 1179.27 1594 1179.41 1591.52C1180.33 1575.84 1180.51 1559.96 1181.76 1544.39C1185.24 1501.47 1181.12 1457.19 1180.77 1413.59C1180.49 1379.44 1177.01 1344.73 1175.01 1310.27C1173.52 1284.75 1172.17 1259.24 1170.65 1233.71C1169.75 1218.23 1167.92 1202.72 1163.87 1187.11C1156.28 1157.91 1148.88 1128.68 1141.39 1099.45C1140.93 1097.67 1140.52 1095.85 1139.83 1094.11C1123.63 1052.75 1110.28 1010.48 1088.39 970.867C1078.29 952.627 1066.89 934.827 1054.77 917.707C1028.6 880.733 999.693 845.92 970.253 811.48C949.04 786.653 925.681 764.493 902.348 741.947C899.311 744.52 901.759 747.414 902.843 749.72C911.959 769.12 921.504 788.36 930.38 807.84C934.209 816.24 939.241 823.16 946.707 828.307C967.413 842.627 985.227 860.893 1003.65 878.267C1008.68 883 1013.07 888.573 1017.44 894C1019.41 896.44 1020.69 899.467 1018.51 903.227C1008.07 899.12 998.867 891.733 989.12 885.493C979.307 879.213 968.813 874.427 959.067 869.227C954.947 872.64 957.747 876.413 958.84 879.6C965.693 899.613 973.8 919.413 977.547 939.947C978.453 944.96 981.36 948.773 985.36 952.453C1000.76 966.573 1015.77 981.2 1031.16 995.333C1041.41 1004.76 1052.24 1013.44 1062.51 1022.85C1077.91 1036.95 1093.15 1051.24 1108.23 1065.72C1113.39 1070.67 1114.36 1076.12 1111.4 1078.28C1107.71 1080.96 1103.99 1078.83 1100.41 1075.89C1096.53 1072.71 1092.77 1069.28 1088.85 1066.15C1059.84 1042.97 1030.81 1019.83 1001.73 996.747C999.84 995.24 997.493 994.427 995.773 993.507C991 994.507 991.107 998.187 991.76 1001.81C995.347 1021.57 999.133 1041.32 1002.75 1061.08C1003.8 1066.85 1006.8 1071.48 1011.19 1075.45C1013.07 1077.15 1014.97 1078.81 1016.89 1080.47C1040.29 1100.73 1063.61 1121.13 1087.17 1141.2C1099.27 1151.52 1109.96 1163.23 1120.39 1175.29C1122.04 1177.21 1123.63 1179.27 1124.93 1181.41C1126.92 1184.69 1128.75 1188.15 1126.31 1191.29C1124.61 1193.48 1120.79 1192.67 1117.21 1188.92C1095.63 1166.21 1071.53 1147.13 1046.83 1128.73C1037.8 1122.01 1029.4 1114.23 1019.52 1109.09C1017.47 1108.03 1015.27 1107.4 1011.96 1106.11C1011.71 1110.32 1010.76 1113.6 1011.45 1116.83C1014.88 1132.96 1018.8 1149.09 1022.43 1165.23C1023.72 1170.95 1026.73 1175.61 1031.07 1179.59C1051.27 1198.11 1067.03 1220.81 1085.55 1240.92C1092.45 1248.4 1098.79 1256.48 1105.83 1263.8C1114.77 1273.12 1121.69 1283.71 1128.08 1294.73C1129.04 1296.37 1130.03 1298.03 1130.83 1299.73C1135 1308.75 1135.11 1316.63 1130.84 1317.33C1124.01 1318.47 1120.21 1312.53 1116.56 1307.45C1097.41 1280.87 1073.95 1258.47 1051.48 1235.12C1048.63 1232.17 1044.97 1230.09 1039.73 1226.12C1040.64 1231.35 1040.73 1234.24 1041.68 1236.97C1048.67 1256.96 1055.95 1276.91 1062.87 1296.91C1065.81 1305.43 1070.23 1312.6 1077.07 1318.92C1086.84 1327.93 1095.83 1337.92 1105.59 1346.93C1119.72 1360 1131 1375.43 1142.41 1390.76C1145 1394.24 1147.17 1398.4 1148.32 1402.41C1149.04 1404.88 1148.29 1408.84 1146.67 1409.92C1145.13 1410.92 1141.28 1409.67 1139 1408.21C1136.51 1406.63 1134.77 1403.53 1132.52 1401.32C1121.16 1390.24 1109.79 1379.19 1098.31 1368.25C1097.11 1367.11 1095.2 1366.81 1093.21 1365.95C1092.11 1371.91 1095.47 1376.88 1097.68 1381.77C1118.23 1427.16 1135.52 1473.32 1150.08 1520.15C1151.36 1524.24 1152.32 1528.45 1152.87 1532.57C1153.05 1533.99 1151.87 1536.28 1150.76 1536.48C1148.89 1536.83 1145.77 1536.55 1144.61 1535.23C1140.92 1530.95 1137.01 1526.36 1134.75 1521.37C1124.84 1499.67 1113.52 1478.56 1106.36 1455.77C1098.76 1431.59 1087.84 1407.95 1078.4 1384.05C1075.65 1377.08 1073.25 1370.01 1070.29 1363.11C1068.6 1359.17 1063.68 1358.24 1062.01 1361.55C1059.35 1366.87 1056.65 1372.28 1054.96 1378.13C1050.15 1394.76 1045.85 1411.63 1041.36 1428.4C1040.63 1431.09 1040.39 1434.17 1039.03 1436.37C1038.08 1437.91 1035.73 1438.95 1033.77 1439C1030.67 1439.08 1027.85 1436.63 1027.28 1433.44C1026.44 1428.72 1026.16 1423.92 1026.28 1419.29C1027.12 1386.33 1032.83 1354.97 1040.55 1324.43C1043.61 1312.28 1042.4 1300.83 1037.64 1287.92C1030.96 1269.8 1025.85 1251.31 1020.01 1233C1018.73 1229 1017.17 1225.05 1014.8 1218.51" fill="black"/>
<path d="M121.323 1331.12C117.431 1331.12 114.412 1325 116.584 1321.75C118.405 1319 120.54 1316.04 123.273 1314.41C133.165 1308.56 143.065 1302.53 153.545 1297.88C163.203 1293.6 171.011 1287.84 176.919 1279.12C184.9 1267.33 193.391 1255.89 201.279 1244.05C204.328 1239.48 201.236 1233.93 195.695 1233.97C189.651 1234 183.625 1235.23 177.571 1235.64C172.223 1236.01 166.788 1236.51 161.521 1235.87C159.591 1235.64 156.979 1232.51 156.611 1230.37C156.264 1228.35 157.864 1224.84 159.645 1223.84C163.723 1221.57 168.36 1220.17 172.899 1218.88C190.501 1213.85 208.073 1208.68 225.82 1204.21C235.359 1201.81 243.097 1197.64 249.875 1190.25C261.725 1177.33 274.524 1165.29 287.373 1152.44C286.905 1148.28 282.823 1148.99 279.767 1148.99C268.921 1148.95 258.068 1149.61 247.232 1149.35C240.501 1149.17 233.725 1148.17 227.144 1146.75C225.097 1146.31 222.511 1143.43 222.189 1141.35C221.871 1139.28 223.517 1135.69 225.323 1134.77C230.699 1132.01 236.412 1129.43 242.289 1128.23C268.844 1122.76 295.524 1117.51 322.805 1118.48C338.133 1119.03 351.933 1116.37 365.373 1108.25C376.292 1101.67 388.833 1097.76 400.639 1092.61C402.921 1091.63 405.12 1090.44 410.483 1087.81C401.696 1085.49 396.139 1083.19 390.415 1082.65C360.051 1079.8 329.653 1076.92 299.112 1079.95C240.713 1085.75 193.331 1110.99 157.9 1158.51C136.268 1187.53 123.887 1219.95 118.068 1255.27C107.193 1321.27 88.6706 1384.75 56.0093 1443.56C54.7253 1445.88 53.8293 1448.4 52.2133 1452.05C56.5066 1453.53 60.0373 1455.44 63.7453 1455.89C71.1226 1456.8 78.6346 1457.61 86.0333 1457.25C132.675 1455.04 177.471 1446.35 217.265 1419.77C241.483 1403.6 266.979 1389.4 288.843 1369.75C326.413 1335.96 355.227 1296 371.276 1248.19C383.597 1211.48 397.772 1175.63 412.432 1139.88C415.517 1132.36 418.387 1124.75 421.024 1117.05C421.829 1114.71 421.535 1111.97 421.728 1109.61C419.635 1108.93 418.232 1107.95 417.144 1108.23C396.145 1113.47 378.155 1123.44 365.493 1141.63C346.568 1168.8 333.811 1198.31 330.725 1231.64C330.235 1236.95 329.072 1242.44 326.896 1247.24C325.784 1249.71 321.916 1251.8 318.98 1252.33C315.081 1253.04 312.553 1249.41 312.309 1246.11C311.777 1238.75 311.585 1231.27 312.357 1223.95C314.125 1207.11 316.625 1190.35 318.664 1173.53C319.137 1169.64 318.952 1165.67 319.048 1162.52C314.701 1158.56 311.612 1160.64 309.127 1162.73C301.38 1169.29 293.565 1175.83 286.46 1183.04C283.277 1186.27 280.881 1190.84 279.583 1195.24C275.168 1210.19 271.184 1225.28 267.52 1240.43C266.427 1244.95 266.833 1249.84 266.695 1254.57C265.871 1282.83 258.355 1309.4 246.577 1334.91C246.013 1336.13 245.367 1337.33 244.632 1338.47C241.532 1343.25 236.695 1345.68 232.88 1344.44C229.139 1343.21 227.803 1338.05 229.945 1332.12C231.791 1327.03 234.497 1322.17 235.781 1316.96C238.193 1307.16 241.009 1297.23 241.541 1287.23C242.249 1273.92 241.641 1260.45 240.331 1245.01C230.501 1250.33 225.509 1257.2 220.971 1264.45C214.856 1274.23 209.357 1284.4 202.799 1293.85C193.585 1307.15 188.968 1321.8 188.527 1337.69C188.121 1352.23 184.753 1365.85 178.487 1378.87C177.605 1380.69 176.856 1382.6 175.875 1384.37C170.237 1394.6 163.211 1399.88 159.719 1396.31C153.591 1390.05 158.841 1383.68 160.517 1377.43C162.263 1370.91 164.176 1364.44 165.749 1357.89C165.993 1356.87 164.811 1355.51 164.291 1354.31C151.659 1360.01 141.096 1368.37 129.247 1380.52C121.225 1388.73 112.427 1396.19 103.915 1403.92C102.425 1405.28 100.763 1407 98.9653 1407.31C96.6013 1407.72 93.1826 1407.75 91.7666 1406.36C90.2893 1404.91 89.4613 1400.92 90.4213 1399.2C93.6879 1393.36 97.6506 1387.87 101.744 1382.53C112.484 1368.57 123.496 1354.81 134.24 1340.85C136.211 1338.29 137.427 1335.15 140.517 1329.47C131.859 1330.27 126.592 1331.12 121.323 1331.12V1331.12ZM143.059 1134.68C164.307 1102.93 194.095 1082.71 229.983 1071.17C244.156 1066.61 258.651 1062.72 273.273 1060C291.213 1056.67 309.373 1053.79 327.559 1052.65C356.049 1050.88 384.435 1054.17 412.663 1057.97C433.428 1060.77 453.945 1066.24 475.187 1062.63C477.152 1062.29 479.26 1062.51 481.265 1062.76C490.056 1063.85 494.5 1071.51 489.971 1078.91C484.673 1087.56 478.811 1095.93 472.563 1103.93C450.944 1131.63 436.797 1163.03 426.564 1196.29C407.777 1257.36 378.584 1312.51 336.281 1360.73C298.515 1403.81 253.383 1436.57 201.117 1459.37C142.756 1484.84 81.1999 1497.75 18.0066 1503.48C15.3253 1503.72 12.5946 1503.89 9.92259 1503.65C3.95726 1503.15 -0.170733 1498.67 0.499934 1492.64C0.9306 1488.76 2.16793 1484.65 4.15859 1481.32C8.30926 1474.35 12.9106 1467.6 17.8359 1461.15C35.6426 1437.8 49.3546 1412.17 60.9533 1385.33C79.9493 1341.37 90.2306 1295.04 96.2999 1247.88C101.272 1209.23 114.459 1174.41 136.841 1143.72C139.216 1140.27 141.173 1137.51 143.059 1134.68" fill="white"/>
<path d="M140.517 1329.47C131.859 1330.27 126.592 1331.12 121.323 1331.12C117.431 1331.12 114.412 1325 116.584 1321.75C118.405 1319 120.54 1316.04 123.273 1314.41C133.165 1308.56 143.065 1302.53 153.545 1297.88C163.203 1293.6 171.011 1287.84 176.919 1279.12C184.9 1267.33 193.391 1255.89 201.279 1244.05C204.328 1239.48 201.236 1233.93 195.695 1233.97C189.651 1234 183.625 1235.23 177.571 1235.64C172.223 1236.01 166.788 1236.51 161.521 1235.87C159.591 1235.64 156.979 1232.51 156.611 1230.37C156.264 1228.35 157.864 1224.84 159.645 1223.84C163.723 1221.57 168.36 1220.17 172.899 1218.88C190.501 1213.85 208.073 1208.68 225.82 1204.21C235.359 1201.81 243.097 1197.64 249.875 1190.25C261.725 1177.33 274.524 1165.29 287.373 1152.44C286.905 1148.28 282.823 1148.99 279.767 1148.99C268.921 1148.95 258.068 1149.61 247.232 1149.35C240.501 1149.17 233.725 1148.17 227.144 1146.75C225.097 1146.31 222.511 1143.43 222.189 1141.35C221.871 1139.28 223.517 1135.69 225.323 1134.77C230.699 1132.01 236.412 1129.43 242.289 1128.23C268.844 1122.76 295.524 1117.51 322.805 1118.48C338.133 1119.03 351.933 1116.37 365.373 1108.25C376.292 1101.67 388.833 1097.76 400.639 1092.61C402.921 1091.63 405.12 1090.44 410.483 1087.81C401.696 1085.49 396.139 1083.19 390.415 1082.65C360.051 1079.8 329.653 1076.92 299.112 1079.95C240.713 1085.75 193.331 1110.99 157.9 1158.51C136.268 1187.53 123.887 1219.95 118.068 1255.27C107.193 1321.27 88.6706 1384.75 56.0093 1443.56C54.7253 1445.88 53.8293 1448.4 52.2133 1452.05C56.5066 1453.53 60.0373 1455.44 63.7453 1455.89C71.1226 1456.8 78.6346 1457.61 86.0332 1457.25C132.675 1455.04 177.471 1446.35 217.265 1419.77C241.483 1403.6 266.979 1389.4 288.843 1369.75C326.413 1335.96 355.227 1296 371.276 1248.19C383.597 1211.48 397.772 1175.63 412.432 1139.88C415.517 1132.36 418.387 1124.75 421.024 1117.05C421.829 1114.71 421.535 1111.97 421.728 1109.61C419.635 1108.93 418.232 1107.95 417.144 1108.23C396.145 1113.47 378.155 1123.44 365.493 1141.63C346.568 1168.8 333.811 1198.31 330.725 1231.64C330.235 1236.95 329.072 1242.44 326.896 1247.24C325.784 1249.71 321.916 1251.8 318.98 1252.33C315.081 1253.04 312.553 1249.41 312.309 1246.11C311.777 1238.75 311.585 1231.27 312.357 1223.95C314.125 1207.11 316.625 1190.35 318.664 1173.53C319.137 1169.64 318.952 1165.67 319.048 1162.52C314.701 1158.56 311.612 1160.64 309.127 1162.73C301.38 1169.29 293.565 1175.83 286.46 1183.04C283.277 1186.27 280.881 1190.84 279.583 1195.24C275.168 1210.19 271.184 1225.28 267.52 1240.43C266.427 1244.95 266.833 1249.84 266.695 1254.57C265.871 1282.83 258.355 1309.4 246.577 1334.91C246.013 1336.13 245.367 1337.33 244.632 1338.47C241.532 1343.25 236.695 1345.68 232.88 1344.44C229.139 1343.21 227.803 1338.05 229.945 1332.12C231.791 1327.03 234.497 1322.17 235.781 1316.96C238.193 1307.16 241.009 1297.23 241.541 1287.23C242.249 1273.92 241.641 1260.45 240.331 1245.01C230.501 1250.33 225.509 1257.2 220.971 1264.45C214.856 1274.23 209.357 1284.4 202.799 1293.85C193.585 1307.15 188.968 1321.8 188.527 1337.69C188.121 1352.23 184.753 1365.85 178.487 1378.87C177.605 1380.69 176.856 1382.6 175.875 1384.37C170.237 1394.6 163.211 1399.88 159.719 1396.31C153.591 1390.05 158.841 1383.68 160.517 1377.43C162.263 1370.91 164.176 1364.44 165.749 1357.89C165.993 1356.87 164.811 1355.51 164.289 1354.31C151.659 1360.01 141.096 1368.37 129.247 1380.52C121.225 1388.73 112.427 1396.19 103.915 1403.92C102.425 1405.28 100.763 1407 98.9652 1407.31C96.6012 1407.72 93.1826 1407.75 91.7666 1406.36C90.2892 1404.91 89.4612 1400.92 90.4212 1399.2C93.6879 1393.36 97.6506 1387.87 101.744 1382.53C112.484 1368.57 123.496 1354.81 134.24 1340.85C136.211 1338.29 137.427 1335.15 140.517 1329.47" fill="black"/>
<path d="M712.185 394.573C705.788 387.613 698.912 381.093 692.461 374.187C686.105 367.373 683.889 357.333 675.745 351.64C667.997 363.293 659.2 396.373 660.757 407.36C661.823 414.893 665.025 420.413 672.749 423.4C682.631 427.24 692.233 431.867 701.713 436.64C707.189 439.387 711.757 438.947 716.524 435.373C723.772 429.947 729.441 423.44 732.5 414.653C727.585 405.64 718.514 401.467 712.185 394.573V394.573ZM614.741 297.893C626.18 308.267 631.803 321.613 631.88 337.227C631.941 349.667 630.552 361.76 627.039 373.853C624.108 383.933 622.972 394.6 621.664 405.093C621.033 410.147 624.067 412.987 628.708 413.373C633.739 413.787 636.82 411.973 638.323 407.573C638.891 405.907 639.367 404.173 639.615 402.44C642.571 381.907 649.44 362.413 655.037 342.56C657.572 333.573 659.041 324.093 659.475 314.76C659.795 307.867 658.104 300.747 656.516 293.92C653.969 282.947 646.728 276.307 635.429 275.72C627.281 275.307 619.043 276.36 610.86 276.96C604.932 277.387 599.303 278.893 593.912 283.347C601.48 288.547 608.777 292.48 614.741 297.893V297.893ZM619.964 556.373C624.993 541.907 630.231 527.507 635.44 513.093C637.563 507.227 637.085 502.24 632.215 498.96C626.925 495.4 621.049 491.8 614.944 490.52C595.916 486.533 576.716 483.227 557.467 480.493C549.463 479.347 540.988 479.507 534.18 484.893C532.081 491.84 536.023 496.773 538.256 502.08C542.148 511.293 546.731 520.253 550.128 529.64C555.424 544.28 563.692 557.107 572.836 569.427C582.163 582 594.523 586.8 611.561 582.573C614.563 573.173 617.071 564.707 619.964 556.373V556.373ZM484.636 586.427C492.72 600.16 500.907 613.827 509.101 627.493C516.291 639.493 525.395 648.573 539.712 652.453C559.639 657.853 579.12 664.88 598.912 670.813C606.233 673.013 613.827 674.56 621.405 675.573C628.277 676.48 635.503 677.52 642.443 672.333C641.784 670.053 641.727 667.507 640.469 665.893C631.319 654.147 623.619 641.693 619.451 627.24C618.072 622.453 614.919 619.573 609.847 617.853C598.699 614.08 587.872 609.373 576.836 605.253C569.116 602.387 561.365 599.507 553.459 597.24C538.155 592.827 522.632 589.16 507.405 584.52C500.697 582.467 494.487 578.773 488.065 575.8C485.037 574.387 482.051 572.907 475.783 569.88C479.845 577.507 482.069 582.067 484.636 586.427V586.427ZM520.459 391.213C535.928 401.347 553.123 407.387 571.365 410.347C574.245 410.813 577.239 410.667 580.177 410.64C584.701 410.613 588.292 408.547 590.175 404.52C596.149 391.72 602.377 379 607.536 365.853C611.048 356.907 610.412 347.133 608.076 337.933C603.805 321.12 585.652 308.12 568.131 308.68C565.804 308.747 563.143 308.787 561.237 309.88C551.097 315.72 539.28 319.28 531.647 328.68C521.3 341.4 511.711 354.747 501.808 367.8C504.669 378.933 512.075 385.707 520.459 391.213V391.213ZM661.999 480.653C669.697 470.933 682.207 466.413 689.325 456.84C686.673 450.053 681.779 447.653 676.948 445.533C666.644 441 656.169 437.013 644.705 436.28C626.996 435.16 609.3 433.787 591.604 432.493C576.271 431.36 560.757 431.307 545.652 428.8C523.333 425.107 504.707 414.04 490.763 395.813C488.371 392.68 486.075 389.48 482.741 384.973C473.252 401.147 470.264 417.04 471.713 433.72C472.359 441.133 477.323 446.84 483.18 451.04C492.915 458.013 503.581 463.147 515.936 463.24C524.809 463.307 533.771 463.813 542.54 462.813C561.033 460.693 579.097 462.84 597.224 466.12C612.524 468.893 626.999 473.693 640.608 481.213C644.687 483.467 648.979 485.333 653.445 487.52C656.603 485.04 659.891 483.32 661.999 480.653V480.653ZM783.574 264.533C789.82 279.44 793.056 294.88 792.657 311.12C792.265 327.053 792.715 343.027 788.295 358.627C783.916 374.08 777.652 388.147 767.431 401.12C753.161 419.227 739.409 437.72 722.959 453.92C715.005 461.747 706.207 468.773 697.397 475.667C682.923 486.987 668.992 498.773 658.413 514.013C657.419 515.453 656.633 517.04 655.889 518.613C655.745 518.92 656.256 519.533 656.892 520.973C669.801 512.667 682.559 504.4 695.393 496.24C701.373 492.44 707.292 488.453 713.6 485.28C739.969 471.947 766.436 458.813 792.959 445.8C801.527 441.6 809.528 436.747 816.279 429.92C830.833 415.227 845.844 400.96 859.831 385.747C866.119 378.907 871.221 370.64 875.446 362.293C889.326 334.893 883.168 309.64 865.74 286.053C864.364 284.187 862.529 282.533 860.602 281.227C838.27 266.133 814.284 255.133 787.16 252.227C785.115 252.013 782.921 253.173 779.627 253.973C781.175 258.133 782.256 261.387 783.574 264.533V264.533ZM805.084 462.64C799.889 465.427 794.882 468.587 789.641 471.293C767.089 482.933 744.317 494.147 721.951 506.133C707.345 513.96 693.969 523.667 682.463 535.827C673.933 544.827 664.877 553.333 656.279 562.267C635.603 583.773 632.109 617.04 648.075 642.307C652.151 648.747 657.083 654.693 662.036 660.52C666.191 665.4 671.776 666.96 678.097 665.32C678.668 665.173 679.261 665.107 679.824 664.933C701.915 658.013 724.163 659.96 746.439 663.76C748.768 664.16 751.113 664.52 753.397 665.12C765.616 668.28 775.199 664.12 783.488 655.093C788.119 650.053 790.843 644.613 791.171 637.747C792.244 615.36 793.807 593 794.555 570.6C795.408 545.067 800.156 520.213 806.16 495.533C808.925 484.16 811.544 472.787 812.988 459.507C809.172 461 807.011 461.6 805.084 462.64V462.64ZM475.716 247.053C457.056 255.907 438.776 265.6 420.663 275.533C415.611 278.307 410.919 282.547 407.385 287.133C392.872 305.973 381.2 325.747 378.377 350.56C372.623 401.08 387.473 444.947 417.757 484.467C422.744 490.973 428.703 496.947 435.037 502.16C457.808 520.947 480.593 539.76 507.195 553.147C515.509 557.347 523.615 562.027 534.721 563.227C533.667 552.16 527.636 544.613 524.272 536.147C521.005 527.92 517.2 519.893 513.985 511.653C510.6 502.973 511.544 492.8 504.771 484.627C496.4 483.053 487.631 481.827 479.084 479.693C462.8 475.627 449.871 466.787 443.131 450.907C440.884 445.613 439.389 439.6 439.219 433.88C438.603 412.96 445.313 394.307 459.064 378.507C465.243 371.413 472.312 365.093 478.979 358.427C485.241 352.16 491.501 345.893 497.768 339.627C501.307 336.093 502.904 331.787 502.907 326.84C502.908 325.067 503.151 323.267 502.915 321.52C499.555 296.693 502.696 272.093 505.239 247.453C505.347 246.4 504.573 245.253 503.704 242.613C493.271 240.04 484.065 243.093 475.716 247.053V247.053ZM542.444 295.547C554.203 282.867 567.445 272 582.335 263.373C600.904 252.64 620.593 248.493 641.985 254.533C654.096 257.947 663.384 264.24 669.139 275.4C671.829 280.627 674.253 286 676.488 291.44C689.404 322.853 707.635 350.973 729.429 376.88C733.972 382.28 739.081 387.093 746.143 390.627C748.456 388.227 751.106 386.52 752.285 384.093C758.465 371.36 765.099 358.76 766.472 344.28C766.861 340.173 767.617 336.093 768.372 332.027C772.079 312.133 768.831 293.56 759.721 275.387C750.941 257.867 740.755 241.36 729.009 225.787C723.339 218.267 716.999 211.227 710.656 204.24C693.245 185.08 671.108 177.147 645.639 177.373C643.276 177.387 640.899 177.413 638.547 177.213C606 174.52 580.173 188.72 557.044 209.64C544.367 221.12 536.919 235.933 531.792 251.773C526.315 268.693 523.656 286.16 526.413 304.947C535.409 305.307 538.619 299.68 542.444 295.547ZM279.281 297.813C301.073 281.92 325.183 273.507 352.169 274.427C377.304 275.293 395.188 263.813 407.425 242.813C416.34 227.507 424.46 211.747 432.945 196.2C444.576 174.88 457.185 154.213 472.289 135.12C478.492 127.28 484.353 119.16 489.883 111.827C488.516 106.747 485.447 106.8 482.527 107.093C454.789 109.92 427.047 108.76 399.284 107.533C394.06 107.293 388.632 107.907 383.536 109.12C354.223 116.16 328.841 130.813 305.729 149.827C282.696 168.787 268.652 194.08 255.967 220.267C251.336 229.827 247.737 239.893 243.915 249.827C242.656 253.093 241.859 256.613 241.373 260.093C239.252 275.307 237.209 290.533 235.383 305.787C234.625 312.093 233.388 318.533 236.82 326.96C252.115 316.493 265.967 307.52 279.281 297.813V297.813ZM269.719 337.573C250.401 346.093 234.22 358.64 218.249 371.733C207.744 380.347 197.755 389.613 187.883 398.947C177.893 408.4 170.437 419.853 164.515 432.16C160.336 440.84 154.775 448.307 148.167 455.16C136.269 467.507 124.492 479.973 112.519 492.253C101.997 503.04 97.0532 515.747 98.0506 530.84C98.5346 538.147 100.796 544.52 105.476 550.333C112.636 559.213 121.173 566.493 130.783 572.347C153.509 586.2 176.567 599.493 201.611 608.88C219.865 615.72 238.265 622.187 256.419 629.28C263.524 632.053 270.137 636.093 276.96 639.573C280.469 641.36 283.947 643.213 289.121 645.92C289.5 639.52 290.015 635.04 289.992 630.547C289.893 611.627 289.884 592.707 289.384 573.787C288.361 535.013 297.279 498.573 316.157 464.92C324.495 450.053 334.977 436.307 345.349 422.72C350.377 416.133 352.307 410.347 351.201 401.787C348.077 377.6 350.243 353.413 354.329 329.413C354.817 326.547 355.035 323.64 355.273 320.733C355.316 320.227 354.845 319.68 353.857 317.467C324.043 318.387 296.54 325.733 269.719 337.573V337.573ZM729.4 685.707C714.652 683.747 700.067 683.773 685.64 688.64C667.567 694.72 649.061 697.453 629.825 695.28C595.476 691.4 562.808 682.24 530.84 668.92C499.837 655.987 467.231 656.68 435.081 665.507C424.859 668.32 415.609 674.04 408.064 681.947C405.633 684.493 403.216 687.12 400.452 689.267C397.209 691.787 391.388 689.147 390.896 684.893C390.569 682.053 390.277 678.6 391.565 676.32C394.417 671.28 397.599 666.04 401.833 662.2C421.72 644.133 445.544 637.053 472.115 638.587C479.035 638.987 485.953 641.107 494.327 638.453C491.811 634.333 489.949 630.867 487.701 627.68C475.799 610.76 463.497 594.107 451.927 576.973C442.012 562.28 432.999 546.987 423.365 532.107C419.851 526.68 416.164 521.213 411.751 516.533C395.455 499.24 380.376 481.147 370.301 459.36C369.379 457.36 367.601 455.76 365.553 453.107C353.827 462.88 345.759 474.467 341.673 488.12C330.659 524.92 319.871 561.84 318.52 600.693C317.984 616.053 316.383 631.4 316.409 646.747C316.436 660.293 317.388 673.92 319.152 687.347C321.072 701.973 324.4 716.4 327.111 730.933C328.837 740.173 333.216 747 342.295 751.187C354.087 756.613 365.453 763.027 376.837 769.307C394.685 779.16 413.879 781.093 433.616 778.8C439.345 778.147 444.969 775.653 450.379 773.36C459.636 769.467 468.485 764.547 477.863 760.987C505.109 750.64 533.284 744.653 562.523 743.72C587.34 742.933 612.165 741.987 636.947 740.48C657.749 739.2 677.703 733.547 697.144 726.293C714.763 719.707 728.149 707.653 739.199 693.427C737.549 687.627 733.479 686.24 729.4 685.707V685.707ZM856.218 621.12C834.769 636.16 816.053 653.613 800.649 675.28C786.276 695.493 767.357 712.04 748.787 728.587C739.964 736.453 731.348 744.56 722.671 752.587C720.065 755 717.735 757.72 715.012 759.987C699.977 772.467 683.591 779.8 663.084 778.6C632.968 776.827 602.953 774.68 572.927 771.6C551.867 769.427 530.328 769.947 509.168 771.52C498.315 772.32 487.715 777.773 477.212 781.68C469.467 784.573 461.889 788.04 454.537 791.827C428.471 805.267 402.309 804.733 375.867 793.12C370.461 790.747 364.977 788.453 359.345 786.72C356.216 785.76 353.397 787.72 352.487 790.84C350.105 799.04 350.699 807.173 353.513 815.24C358.927 830.747 367.779 843.853 381.032 853.6C393.511 862.773 406.992 869.36 422.623 872.453C466.955 881.213 511.493 885.64 556.679 883.093C566.12 882.56 575.612 883.013 585.079 882.907C597.063 882.76 608.395 884.533 619.361 890.16C632.748 897.053 647.099 894.56 661.011 891.333C677.307 887.56 692.528 880.507 706.44 871.627C744.82 847.107 782.848 822.013 820.495 796.387C834.633 786.773 847.247 774.92 860.723 764.307C879.725 749.333 889.845 728.973 896.233 706.333C898 700.08 898.991 693.613 900.723 687.347C907.525 662.68 902.156 639.267 893.505 616.24C892.343 613.147 889.523 610.693 887.151 607.507C875.395 609.707 865.474 614.627 856.218 621.12V621.12ZM1080.52 558.773C1081.73 590.547 1076.15 621.267 1067.21 651.467C1062.19 668.48 1056.33 685.24 1050.63 702.04C1045.43 717.387 1036.61 730.613 1026.21 742.947C1006.59 766.227 984.626 786.693 957.44 800.933C951.24 804.187 947.347 808.92 945.379 815.48C937.085 843.04 921.957 867.347 906.583 891.053C886.22 922.44 860.512 949.507 830.116 971.84C822.06 977.76 814.883 984.853 807.017 991.053C801.484 995.427 795.84 999.907 789.611 1003.09C752.177 1022.24 712.537 1032.91 670.293 1033.47C659.677 1033.61 649.084 1035.01 638.469 1035.65C623.115 1036.59 607.757 1037.72 592.391 1037.96C586.628 1038.05 580.788 1036.04 575.057 1034.67C567 1032.76 559.056 1030.35 550.971 1028.59C548.397 1028.01 545.525 1028.81 541.495 1029.07C543.317 1041.61 550.151 1049.55 558.269 1056.41C575.781 1071.23 595.777 1081.13 618.473 1085.09C653.772 1091.25 689.147 1091.81 724.46 1085.39C743.212 1081.96 761.061 1075.81 777.344 1065.61C780.348 1063.72 783.317 1061.69 786.533 1060.24C809.705 1049.79 832.326 1037.63 856.329 1029.63C879.184 1022.01 903.323 1017.6 927.227 1013.95C953.213 1009.97 956.72 1011.72 971.973 983C976.946 973.653 980.44 963.453 983.853 953.373C990.093 934.893 995.213 916.027 1001.8 897.68C1010.07 874.627 1022.24 853.587 1039.36 835.933C1063.67 810.893 1089.04 786.88 1112.97 761.493C1129.16 744.307 1143.89 725.693 1151.93 702.853C1152.52 701.187 1153.31 699.587 1154.04 697.973C1170.56 661.413 1168.21 625.547 1149.65 590.507C1144.68 581.107 1139.52 571.587 1132.92 563.347C1122.2 549.947 1109.97 537.853 1093.69 530.947C1092.07 530.267 1090.37 529.667 1088.65 529.333C1087.55 529.12 1086.35 529.493 1084.21 529.68C1081 538.907 1080.15 548.92 1080.52 558.773V558.773ZM926.955 778.68C965.667 766.933 999.96 747.987 1022.85 712.92C1033.4 696.773 1038.84 678.533 1041.91 659.827C1044.37 644.72 1045.61 629.253 1045.64 613.933C1045.68 584.813 1048.81 556.133 1054.67 527.667C1056.93 516.68 1058.72 505.6 1060.77 494.573C1061.09 492.84 1061.37 491.027 1062.11 489.453C1077.45 457.213 1085.05 422.413 1095.67 388.6C1098.85 378.48 1102.25 368.36 1106.45 358.627C1115.96 336.573 1116.09 313.693 1112.76 290.64C1111.96 285.107 1108.75 279.347 1105.13 274.907C1097.71 265.76 1089.84 256.773 1081.07 248.933C1072.24 241.067 1061.76 235.907 1049.79 233.16C1030.21 228.68 1010.89 223.12 990.746 221.587C987.813 221.36 984.907 220.6 981.96 220.467C971.88 219.987 969.386 223.267 971.88 233.053C974.066 241.64 975.907 250.32 978.067 258.92C983.693 281.347 982.427 303.867 975.933 325.547C963.88 365.747 951.253 405.813 937.089 445.293C927.841 471.067 921.304 497.293 916.946 524.12C915.542 532.773 915.919 541.867 916.587 550.667C917.932 568.32 919.621 585.973 921.979 603.507C923.472 614.613 926.629 625.48 928.693 636.52C936.109 676.133 926.167 712.853 908.964 748.027C905.153 755.813 898.464 762.2 893.057 769.2C891.301 771.48 889.409 773.653 885.315 778.627C901.457 781.6 914.737 782.387 926.955 778.68V778.68ZM875.893 579.053C880.591 575.813 882.491 571.12 883.304 565.533C884.665 556.173 886.726 546.933 888.262 537.6C893.094 508.227 904.489 480.84 913.312 452.653C927.816 406.32 940.696 359.453 946.139 311.08C949.187 284.04 949.107 256.6 942.972 229.813C940.761 220.16 936.215 210.92 931.876 201.907C927.529 192.88 921.996 184.427 917.193 175.6C907.797 158.347 895.328 143.253 883.099 128.08C873.012 115.56 863.233 102.92 857.168 88.0132C853.23 78.3332 846.421 73.5066 836.927 70.0666C815.832 62.4266 795.296 53.2267 774.157 45.72C749.004 36.8 723.024 30.2533 696.299 29.3066C674.091 28.5199 652.973 34.9066 633.357 45.4666C623.989 50.5066 614.999 56.2533 605.747 61.52C594.46 67.9467 582.748 73.6799 571.812 80.6399C551.848 93.3599 531.915 106.267 518.451 126.627C516.497 129.573 514.288 132.387 511.973 135.067C495.697 153.933 483.097 175.413 468.905 195.76C463.296 203.8 458.296 212.413 455.975 224.427C477.06 216.667 496.171 208.88 517.679 208.96C519.935 205.64 522.36 202.36 524.479 198.893C554.277 150.213 610.44 138.293 651.017 151.2C662.839 154.96 674.44 159.44 686.333 162.933C703.384 167.933 716.528 178.667 728.984 190.587C734.109 195.48 739.429 200.213 744.162 205.48C751.782 213.947 761.373 217.787 772.392 218.56C803.18 220.72 830.957 232.573 858.161 245.76C886.691 259.573 904.022 283.907 911.002 313.6C917.902 342.947 911.563 371.213 891.053 394.92C888.345 398.04 885.268 400.867 882.708 404.107C877.234 411.027 870.644 417.48 866.901 425.267C855.646 448.707 844.322 472.227 839.58 498.16C836.066 517.36 832.352 536.52 828.962 555.747C825.944 572.867 828.196 589.613 832.827 608.72C848.701 597.8 862.316 588.453 875.893 579.053V579.053ZM548.737 1085.91C526.245 1073.56 513.1 1053.69 503.765 1030.68C502.877 1028.49 502.312 1026.19 501.497 1023.96C499.701 1019.08 496.183 1016.29 491.021 1015.59C464.709 1011.96 438.889 1004.85 411.975 1005.37C401.389 1005.59 390.776 1003.76 380.161 1003.09C370.14 1002.47 360.099 1002.07 350.064 1001.72C341.788 1001.44 333.505 1001.35 325.224 1001.23C307.369 1000.97 295.452 991.16 286.715 976.787C283.047 970.747 280.345 964.107 277.367 957.68C272.337 946.813 265.201 937.387 257.18 928.653C246.388 916.907 234.403 906.147 224.587 893.653C215.159 881.653 207.219 868.333 199.779 854.96C192.04 841.053 185.387 826.493 178.803 811.973C171.36 795.573 168.825 777.933 168.353 760.147C167.915 743.6 168.516 727.027 168.944 710.48C169.033 707.013 170.344 703.587 171.117 700.16C175.397 681.12 179.717 662.093 183.925 643.04C184.419 640.813 184.304 638.453 184.483 635.96C182.909 634.6 181.757 633.12 180.241 632.373C163.757 624.413 147.325 616.307 130.647 608.76C119.98 603.92 117.153 604.8 108.791 613.333C85.4546 637.133 73.6919 666.293 69.9906 698.933C65.6813 736.907 68.9399 774.44 77.6653 811.6C82.5266 832.293 87.0279 853.093 91.4719 873.88C98.9946 909.107 114.407 940.987 133.355 971.173C147.203 993.227 160.381 1015.51 171.783 1038.99C178.871 1053.57 190.989 1064.43 207.741 1068.12C229.1 1072.84 250.527 1077.25 271.928 1081.77C285.848 1084.72 299.107 1089.63 312.555 1094.21C346.665 1105.81 380.828 1118.11 416.587 1123.24C435.103 1125.89 454.325 1123.99 473.217 1123.56C483.836 1123.33 494.419 1121.76 505.037 1121.13C519.412 1120.27 533.024 1116.53 546.069 1110.68C552.505 1107.8 558.817 1104.48 562.643 1095.31C557.44 1091.76 553.315 1088.43 548.737 1085.91V1085.91ZM208.093 675.08C198.569 698.253 192.981 722.227 196.225 747.733C199.748 775.453 205.969 802.347 216.485 828.333C221.471 840.64 228.965 851.067 237.22 861.133C241.344 866.16 245.876 870.853 249.985 875.893C264.164 893.28 279.3 909.893 288.04 931.2C291.348 939.253 297.131 946.4 302.325 953.573C307.761 961.08 315.063 965.613 324.789 965.92C337.181 966.32 349.548 967.613 361.937 967.8C390.481 968.213 418.487 971.32 445.72 980.587C467.535 988.027 489.559 994.667 512.579 997.947C528.924 1000.27 545.051 1004.39 561.136 1008.27C588.08 1014.79 615.152 1013.93 642.168 1009.8C659.671 1007.12 676.953 1003 694.336 999.52C697.235 998.933 700.135 997.92 703.041 997.893C725.816 997.64 745.656 988.52 764.36 976.88C780.396 966.907 795.673 955.693 811.281 945.027C811.769 944.693 812.281 944.333 812.632 943.88C830.767 920.213 856.871 904.68 875.9 881.96C890.368 864.68 903.245 846.307 912.285 825.507C912.946 823.987 912.901 822.16 913.399 819.213C910.504 818.64 907.879 817.667 905.264 817.707C902.355 817.747 899.469 818.773 896.552 819.24C880.758 821.773 864.975 824.133 848.96 820.8C842.268 819.413 835.969 820.573 830.689 825.267C813.293 840.693 791.804 850.053 773.357 863.867C753.337 878.84 730.816 889.453 709.16 901.493C696.356 908.6 682.288 914.24 668.105 917.88C650.22 922.467 630.995 923.28 613.996 915.613C586.295 903.107 557.647 904.52 528.667 904.947C504.44 905.32 480.176 905.16 455.972 904.2C435.64 903.387 416.401 897.453 398.527 887.6C386.629 881.04 374.631 874.6 363.171 867.333C349.883 858.893 340.367 846.72 333.28 832.84C325.76 818.107 322.895 802.693 328.964 786.56C329.38 785.453 329.791 784.347 330.089 783.2C332.373 774.507 331.124 772.027 322.303 768.453C318.468 766.893 314.531 765.573 310.585 764.333C305.495 762.707 302.747 759.12 302.032 754.053C301.287 748.8 300.881 743.493 300.42 738.187C299.804 731.12 299.167 724.053 298.737 716.973C297.841 702.227 289.879 691.08 278.944 682.667C263.939 671.133 247.512 661.587 229.48 655.227C227.876 654.667 226.035 654.76 221.716 654.24C216.953 661.373 211.141 667.653 208.093 675.08V675.08ZM247.991 1116.79C253 1146.83 261.419 1175.39 280.141 1200.37C293.485 1218.19 310.669 1230 331.063 1237.35C349.972 1244.15 369.239 1249.6 389.223 1253.09C417.193 1257.97 445.119 1263.13 473.073 1268.12C498.617 1272.68 523.689 1280.36 548.567 1287.97C560.329 1291.57 570.391 1290.52 580.912 1285.11C597.225 1276.72 614.036 1269.25 630.135 1260.48C647.456 1251.04 666.004 1245.07 684.655 1239.32C715.796 1229.75 747.508 1222.56 779.672 1217.23C788.948 1215.69 798.027 1212.79 807.083 1210.12C819.568 1206.44 831.883 1202.17 844.383 1198.55C872.228 1190.47 896.503 1176.33 917.42 1156.32C924.691 1149.36 932.15 1142.59 939.202 1135.41C947.106 1127.37 953.827 1118.49 956.36 1107.99C953.573 1101.93 948.667 1101.04 944.179 1099.95C922.404 1094.65 904.377 1082.09 885.979 1070.25C877.037 1064.49 868.213 1058.56 859.474 1052.8C846.812 1053.89 836.554 1060.09 825.829 1064.87C798.801 1076.89 771.94 1089.28 744.789 1101.01C737.816 1104.03 730.112 1106.31 722.584 1106.92C694.912 1109.12 667.384 1114.33 639.448 1111.88C629.005 1110.96 619.901 1113.23 611.148 1119.48C605.008 1123.87 597.491 1126.47 590.363 1129.31C578.273 1134.12 566.013 1138.52 553.808 1143.04C551.033 1144.07 548.245 1145.43 545.368 1145.75C520.156 1148.48 495.585 1155.15 469.845 1155.17C427.739 1155.2 387.939 1145.85 348.612 1131.81C319.14 1121.29 289.468 1110.87 258.104 1106.99C255.816 1106.71 253.464 1106.95 249.203 1106.95C248.64 1111.15 247.54 1114.11 247.991 1116.79V1116.79ZM917.548 141.24C925.772 152.067 933.909 162.96 941.749 174.053C945.755 179.72 950.56 183.013 957.6 184.067C969.28 185.787 980.933 187.96 992.427 190.693C1016.68 196.453 1039.93 205.413 1062.72 215.24C1075.68 220.827 1088.67 227.36 1099.85 235.827C1126.35 255.853 1137.43 284.027 1136.05 316.613C1134.71 348.24 1126.85 378.547 1113.23 407.24C1101.96 430.973 1097.35 456.72 1090.77 481.867C1089.44 486.973 1091.13 491.253 1095.72 494.08C1101.77 497.787 1108.29 500.853 1113.92 505.12C1136.75 522.373 1157.29 541.813 1170.85 567.573C1172.23 570.187 1174.07 572.68 1174.85 575.467C1186.89 617.8 1191.76 659.747 1173.95 702.293C1164.65 724.507 1151.05 743.52 1137.65 762.947C1136.32 764.867 1134.85 766.707 1133.56 768.653C1133.29 769.04 1133.52 769.76 1133.52 770.293C1135.89 772.627 1137.87 770.627 1139.84 769.72C1157.27 761.707 1171.75 749.613 1186.01 737.04C1196.31 727.96 1206.12 718.68 1212.59 706.427C1215.61 700.693 1218.72 694.947 1221.01 688.92C1228.35 669.573 1235.83 650.253 1242.27 630.6C1246.29 618.28 1250.07 605.547 1251.32 592.733C1256.47 539.653 1258.39 486.493 1251.28 433.36C1250.27 425.747 1249.56 418.053 1249.41 410.387C1248.65 368.28 1242.39 326.72 1237.36 285.027C1234.81 263.907 1232.96 242.707 1230.51 221.573C1228.93 208.067 1226.89 194.613 1227.96 180.933C1228.43 174.827 1225.25 170.947 1219.65 168.76C1215.8 167.267 1212.16 165.013 1208.19 164.04C1183.19 157.88 1161.12 145.307 1138.49 133.64C1123.03 125.653 1109.52 115.48 1096.48 104.347C1094.68 102.813 1092.99 100.96 1090.92 99.96C1064.32 87.04 1040.97 68.3732 1013.25 57.2799C983.987 45.5599 957.56 48.6666 933.787 69.0666C923.524 77.8666 914.507 88.1733 905.277 98.1066C902.579 101.027 901.092 105.053 898.864 108.893C903.493 120.88 910.003 131.32 917.548 141.24V141.24ZM999.467 1074.91C1019.01 1075.23 1038.49 1074.67 1057.81 1071.05C1065.95 1069.53 1074.23 1068.81 1082.44 1067.77C1100.27 1065.51 1117.4 1060.89 1132.41 1050.79C1151.53 1037.91 1170.67 1024.97 1188.84 1010.83C1197.57 1004.05 1204.75 994.933 1211.48 986.013C1224.32 969.013 1236.33 951.413 1248.65 934.027C1250.36 931.613 1252.15 929.187 1253.4 926.533C1264.89 902.36 1283.79 884.84 1304.04 868.107C1318.67 856.027 1333.51 844.413 1349.45 834.173C1351.93 832.573 1354.19 830.4 1356.88 829.373C1372.16 823.533 1377.53 811.613 1379.28 796.28C1383.83 756.267 1392.29 716.893 1399.31 677.28C1405.68 641.227 1412.43 605.16 1414.88 568.453C1415.83 554.307 1413.11 541.36 1407.6 528.8C1394.89 499.827 1378.11 473.4 1355.41 451.2C1344.45 440.48 1332.07 431.213 1320.72 420.853C1308.33 409.533 1294.15 410.44 1279.44 412.44C1275.91 419.747 1277.83 426.267 1278 432.627C1279 469.293 1280.68 505.947 1280.91 542.613C1281.04 565.067 1280.48 587.72 1277.57 609.933C1273.19 643.453 1265.43 676.373 1247.61 705.84C1239.97 718.467 1231.6 730.667 1223.37 742.947C1213.33 757.947 1199.65 769.28 1185.19 779.653C1171.25 789.627 1157.39 799.613 1140.84 805.413C1126.76 810.36 1112.6 814.573 1097.72 814.813C1089.27 814.947 1083.31 818.24 1077.35 823.693C1061.93 837.8 1049.8 854.547 1037.48 871.2C1021.65 892.64 1013.84 917.253 1008.23 942.88C1004.68 959.053 1000.36 975.053 996.413 991.147C994.586 998.613 992.613 1006.05 991.133 1013.59C988.307 1027.93 981.507 1034.77 966.12 1036.28C953.773 1037.48 941.309 1037.52 928.893 1037.96C921.309 1038.23 921.305 1038.12 910.451 1043.72C938.272 1063.93 967.133 1074.37 999.467 1074.91V1074.91ZM67.5333 570.213C52.1199 554.04 48.6333 535.293 56.9919 514.507C61.0773 504.347 68.1306 496.747 76.7199 489.933C89.6679 479.653 103.552 469.813 113.953 457.24C131.28 436.293 152.16 418.333 166.525 394.88C169.559 389.92 173.977 385.6 178.429 381.773C188.819 372.827 194.007 361.08 197.256 348.307C199.003 341.453 199.795 334.347 201.096 327.373C206.528 298.293 211.503 269.12 221.961 241.227C226.944 227.947 231.364 214.453 235.924 201.013C243.368 179.067 252.057 157.773 267.007 139.627C268.877 137.36 270.663 134.92 271.964 132.293C279.149 117.827 291.376 108.733 304.953 101.08C329.417 87.2799 356.161 83.5599 383.715 83.1066C413.884 82.6133 444.064 82.0799 474.213 80.9466C487.185 80.4532 500.084 78.24 513.04 77.0666C521.161 76.3466 527.281 72.7332 532.928 66.8132C546.092 53.0266 561.297 41.8267 578.619 33.5867C593.56 26.4667 608.325 18.9866 623.248 11.8266C626.964 10.04 630.92 8.69333 634.863 7.45333C656.633 0.653333 679.1 0.306562 701.603 0.479895C722.623 0.626562 742.36 6.79997 762.089 13.2266C786.833 21.28 811.668 29.0666 836.545 36.6933C842.741 38.6 849.221 39.6399 855.623 40.7733C871.957 43.6666 875.783 47.5467 877.383 63.4533C877.56 65.2133 877.034 67.1733 877.636 68.7333C878.437 70.8133 879.623 73.1733 881.361 74.36C884.211 76.3066 887.171 74.6933 889.244 72.5066C894.544 66.9466 899.313 60.8533 904.804 55.4933C929.395 31.4666 957.76 18.5333 993.16 24.4533C1006.21 26.64 1018.47 30.1733 1030.03 36.4266C1035.23 39.2533 1040.47 42 1045.69 44.76C1070.77 58.0266 1096.33 70.4533 1120.76 84.8266C1137.11 94.44 1153.6 103.64 1170.65 111.813C1179.15 115.867 1188.04 119.147 1196.92 122.307C1205.83 125.48 1215.25 127.347 1223.91 131.067C1237.68 136.987 1247.43 147.347 1249.67 162.533C1251.92 177.72 1252.6 193.147 1254.01 208.453C1255.61 225.52 1256.95 242.627 1258.97 259.64C1261.77 283.12 1267.63 306.16 1268.88 329.893C1269.39 339.32 1270.72 348.733 1271.93 358.107C1272.29 360.92 1273.55 363.6 1274.52 366.773C1279.03 367.267 1283.08 367.667 1287.13 368.147C1295.39 369.133 1303.45 370.68 1310.84 374.907C1327.31 384.333 1343.23 394.533 1357.67 406.92C1383.55 429.093 1403.96 455.68 1421.95 484.493C1444.63 520.867 1449.92 560.72 1446.36 602.16C1444.73 620.947 1440.76 639.6 1436.81 658.093C1427.27 702.893 1423.07 748.08 1424.43 793.867C1424.85 808.64 1424.81 823.48 1423.97 838.24C1423.2 851.747 1420 854.133 1406.8 856.187C1399.25 857.36 1391.35 858.227 1384.43 861.187C1364.31 869.787 1344.39 878.96 1327.88 893.973C1323.96 897.56 1319.57 900.64 1315.33 903.853C1291.09 922.307 1271.19 944.413 1254.31 969.987C1235.77 998.067 1216.17 1025.73 1190.17 1047.81C1177.56 1058.52 1164.49 1068.73 1151.32 1078.77C1144.29 1084.13 1137.15 1089.84 1129.16 1093.31C1100.63 1105.63 1070.79 1112.41 1039.48 1111.57C1030.6 1111.33 1021.72 1111.32 1012.84 1111.24C1007.87 1111.2 1003.24 1112.27 1000.61 1116.92C991.186 1133.63 977.32 1146.65 964.92 1160.93C955.88 1171.33 945.57 1180.24 934.208 1187.56C913.798 1200.69 892.543 1212.41 868.895 1219.11C859.8 1221.68 850.764 1224.64 842 1228.17C824.919 1235.04 807.672 1241.03 789.26 1243.28C784.023 1243.92 778.94 1245.85 773.8 1247.25C734.972 1257.81 696.243 1268.76 657.285 1278.83C632.967 1285.12 610.165 1294.48 588.965 1307.87C584.464 1310.71 579.961 1313.56 575.381 1316.27C566.632 1321.47 558.143 1322.33 548.599 1317.11C538.251 1311.45 527.107 1307.23 516.229 1302.56C511.9 1300.71 507.461 1298.81 502.881 1297.87C486.117 1294.41 469.641 1289.16 452.18 1289.81C448.112 1289.96 443.957 1288.89 439.901 1288.08C423.656 1284.87 407.216 1282.35 391.259 1278.05C369.039 1272.07 346.112 1268.2 325.336 1257.41C305.379 1247.04 285.672 1236.4 267.037 1223.63C249.521 1211.61 235.375 1197.25 225.873 1178.2C216.353 1159.11 206.671 1140.09 201.363 1119.31C199.357 1111.44 198.508 1103.29 197.036 1094.71C189.884 1092.76 183.141 1090.65 176.273 1089.09C162.111 1085.88 153.568 1077.44 150.572 1063.15C149.484 1057.96 147.693 1052.89 145.931 1047.87C137.671 1024.35 126.904 1001.99 114.503 980.387C91.9519 941.08 75.3213 899.32 66.0559 855.04C56.8626 811.08 46.8839 767.107 47.1786 721.76C47.2359 712.92 47.0119 703.973 48.2266 695.267C50.8439 676.493 55.1199 658.08 61.4106 640.107C66.3626 625.947 72.7293 612.84 82.8546 601.627C85.5253 598.68 87.4626 595.053 90.0053 591.347C82.0866 583.947 74.4239 577.44 67.5333 570.213" fill="white"/>
<path d="M910.451 1043.72C938.272 1063.93 967.133 1074.37 999.467 1074.91C1019.01 1075.23 1038.49 1074.67 1057.81 1071.05C1065.95 1069.53 1074.23 1068.81 1082.44 1067.77C1100.27 1065.51 1117.4 1060.89 1132.41 1050.79C1151.53 1037.91 1170.67 1024.97 1188.84 1010.83C1197.57 1004.05 1204.75 994.933 1211.48 986.013C1224.32 969.013 1236.33 951.413 1248.65 934.027C1250.36 931.613 1252.15 929.187 1253.4 926.533C1264.89 902.36 1283.79 884.84 1304.04 868.107C1318.67 856.027 1333.51 844.413 1349.45 834.173C1351.93 832.573 1354.19 830.4 1356.88 829.373C1372.16 823.533 1377.53 811.613 1379.28 796.28C1383.83 756.267 1392.29 716.893 1399.31 677.28C1405.68 641.227 1412.43 605.16 1414.88 568.453C1415.83 554.307 1413.11 541.36 1407.6 528.8C1394.89 499.827 1378.11 473.4 1355.41 451.2C1344.45 440.48 1332.07 431.213 1320.72 420.853C1308.33 409.533 1294.15 410.44 1279.44 412.44C1275.91 419.747 1277.83 426.267 1278 432.627C1279 469.293 1280.68 505.947 1280.91 542.613C1281.04 565.067 1280.48 587.72 1277.57 609.933C1273.19 643.453 1265.43 676.373 1247.61 705.84C1239.97 718.467 1231.6 730.667 1223.37 742.947C1213.33 757.947 1199.65 769.28 1185.19 779.653C1171.25 789.627 1157.39 799.613 1140.84 805.413C1126.76 810.36 1112.6 814.573 1097.72 814.813C1089.27 814.947 1083.31 818.24 1077.35 823.693C1061.93 837.8 1049.8 854.547 1037.48 871.2C1021.65 892.64 1013.84 917.253 1008.23 942.88C1004.68 959.053 1000.36 975.053 996.413 991.147C994.587 998.613 992.613 1006.05 991.133 1013.59C988.307 1027.93 981.507 1034.77 966.12 1036.28C953.773 1037.48 941.309 1037.52 928.893 1037.96C921.309 1038.23 921.305 1038.12 910.451 1043.72" fill="#EA738D"/>
<path d="M898.864 108.893C903.493 120.88 910.003 131.32 917.548 141.24C925.772 152.067 933.909 162.96 941.749 174.053C945.755 179.72 950.56 183.013 957.6 184.067C969.28 185.787 980.933 187.96 992.427 190.693C1016.68 196.453 1039.93 205.413 1062.72 215.24C1075.68 220.827 1088.67 227.36 1099.85 235.827C1126.35 255.853 1137.43 284.027 1136.05 316.613C1134.71 348.24 1126.85 378.547 1113.23 407.24C1101.96 430.973 1097.35 456.72 1090.77 481.867C1089.44 486.973 1091.13 491.253 1095.72 494.08C1101.77 497.787 1108.29 500.853 1113.92 505.12C1136.75 522.373 1157.29 541.813 1170.85 567.573C1172.23 570.187 1174.07 572.68 1174.85 575.467C1186.89 617.8 1191.76 659.747 1173.95 702.293C1164.65 724.507 1151.05 743.52 1137.65 762.947C1136.32 764.867 1134.85 766.707 1133.56 768.653C1133.29 769.04 1133.52 769.76 1133.52 770.293C1135.89 772.627 1137.87 770.627 1139.84 769.72C1157.27 761.707 1171.75 749.613 1186.01 737.04C1196.31 727.96 1206.12 718.68 1212.59 706.427C1215.61 700.693 1218.72 694.947 1221.01 688.92C1228.35 669.573 1235.83 650.253 1242.27 630.6C1246.29 618.28 1250.07 605.547 1251.32 592.733C1256.47 539.653 1258.39 486.493 1251.28 433.36C1250.27 425.747 1249.56 418.053 1249.41 410.387C1248.65 368.28 1242.39 326.72 1237.36 285.027C1234.81 263.907 1232.96 242.707 1230.51 221.573C1228.93 208.067 1226.89 194.613 1227.96 180.933C1228.43 174.827 1225.25 170.947 1219.65 168.76C1215.8 167.267 1212.16 165.013 1208.19 164.04C1183.19 157.88 1161.12 145.307 1138.49 133.64C1123.03 125.653 1109.52 115.48 1096.48 104.347C1094.68 102.813 1092.99 100.96 1090.92 99.9601C1064.32 87.0401 1040.97 68.3733 1013.25 57.28C983.987 45.56 957.56 48.6667 933.787 69.0667C923.524 77.8667 914.507 88.1733 905.277 98.1067C902.579 101.027 901.092 105.053 898.864 108.893" fill="#EA738D"/>
<path d="M249.203 1106.95C248.64 1111.15 247.54 1114.11 247.991 1116.79C253 1146.83 261.419 1175.39 280.141 1200.37C293.485 1218.19 310.669 1230 331.063 1237.35C349.972 1244.15 369.239 1249.6 389.223 1253.09C417.193 1257.97 445.119 1263.13 473.073 1268.12C498.617 1272.68 523.689 1280.36 548.567 1287.97C560.329 1291.57 570.391 1290.52 580.912 1285.11C597.225 1276.72 614.036 1269.25 630.135 1260.48C647.456 1251.04 666.004 1245.07 684.655 1239.32C715.796 1229.75 747.508 1222.56 779.672 1217.23C788.948 1215.69 798.027 1212.79 807.083 1210.12C819.568 1206.44 831.883 1202.17 844.383 1198.55C872.228 1190.47 896.503 1176.33 917.42 1156.32C924.691 1149.36 932.151 1142.59 939.203 1135.41C947.107 1127.37 953.827 1118.49 956.36 1107.99C953.573 1101.93 948.667 1101.04 944.179 1099.95C922.404 1094.65 904.377 1082.09 885.979 1070.25C877.037 1064.49 868.213 1058.56 859.475 1052.8C846.812 1053.89 836.555 1060.09 825.829 1064.87C798.801 1076.89 771.94 1089.28 744.789 1101.01C737.816 1104.03 730.112 1106.31 722.584 1106.92C694.912 1109.12 667.384 1114.33 639.448 1111.88C629.005 1110.96 619.901 1113.23 611.148 1119.48C605.008 1123.87 597.491 1126.47 590.363 1129.31C578.273 1134.12 566.013 1138.52 553.808 1143.04C551.033 1144.07 548.245 1145.43 545.368 1145.75C520.156 1148.48 495.585 1155.15 469.845 1155.17C427.739 1155.2 387.939 1145.85 348.612 1131.81C319.14 1121.29 289.468 1110.87 258.104 1106.99C255.816 1106.71 253.464 1106.95 249.203 1106.95" fill="#EA738D"/>
<path d="M221.716 654.24C216.953 661.373 211.141 667.653 208.093 675.08C198.569 698.253 192.981 722.227 196.225 747.733C199.748 775.453 205.969 802.347 216.485 828.333C221.471 840.64 228.965 851.067 237.22 861.133C241.344 866.16 245.876 870.853 249.985 875.893C264.164 893.28 279.3 909.893 288.04 931.2C291.348 939.253 297.131 946.4 302.325 953.573C307.761 961.08 315.063 965.613 324.789 965.92C337.181 966.32 349.548 967.613 361.937 967.8C390.481 968.213 418.487 971.32 445.72 980.587C467.535 988.027 489.559 994.667 512.579 997.947C528.924 1000.27 545.051 1004.39 561.136 1008.27C588.08 1014.79 615.152 1013.93 642.168 1009.8C659.671 1007.12 676.953 1003 694.336 999.52C697.235 998.933 700.135 997.92 703.041 997.893C725.816 997.64 745.656 988.52 764.36 976.88C780.396 966.907 795.673 955.693 811.281 945.027C811.769 944.693 812.281 944.333 812.632 943.88C830.767 920.213 856.871 904.68 875.9 881.96C890.368 864.68 903.245 846.307 912.285 825.507C912.947 823.987 912.901 822.16 913.399 819.213C910.504 818.64 907.879 817.667 905.264 817.707C902.355 817.747 899.469 818.773 896.552 819.24C880.759 821.773 864.975 824.133 848.96 820.8C842.268 819.413 835.969 820.573 830.689 825.267C813.293 840.693 791.804 850.053 773.357 863.867C753.337 878.84 730.816 889.453 709.16 901.493C696.356 908.6 682.288 914.24 668.105 917.88C650.22 922.467 630.995 923.28 613.996 915.613C586.295 903.107 557.647 904.52 528.667 904.947C504.44 905.32 480.176 905.16 455.972 904.2C435.64 903.387 416.401 897.453 398.527 887.6C386.629 881.04 374.631 874.6 363.171 867.333C349.883 858.893 340.367 846.72 333.28 832.84C325.76 818.107 322.895 802.693 328.964 786.56C329.38 785.453 329.791 784.347 330.089 783.2C332.373 774.507 331.124 772.027 322.303 768.453C318.468 766.893 314.531 765.573 310.585 764.333C305.495 762.707 302.747 759.12 302.032 754.053C301.287 748.8 300.881 743.493 300.42 738.187C299.804 731.12 299.167 724.053 298.737 716.973C297.841 702.227 289.879 691.08 278.944 682.667C263.939 671.133 247.512 661.587 229.48 655.227C227.876 654.667 226.035 654.76 221.716 654.24" fill="#EA738D"/>
<path d="M562.643 1095.31C557.44 1091.76 553.315 1088.43 548.737 1085.91C526.245 1073.56 513.1 1053.69 503.765 1030.68C502.877 1028.49 502.312 1026.19 501.497 1023.96C499.701 1019.08 496.183 1016.29 491.021 1015.59C464.709 1011.96 438.889 1004.85 411.975 1005.37C401.389 1005.59 390.776 1003.76 380.161 1003.09C370.14 1002.47 360.099 1002.07 350.064 1001.72C341.788 1001.44 333.505 1001.35 325.224 1001.23C307.369 1000.97 295.452 991.16 286.715 976.787C283.047 970.747 280.345 964.107 277.367 957.68C272.337 946.813 265.201 937.387 257.18 928.653C246.388 916.907 234.403 906.147 224.587 893.653C215.159 881.653 207.219 868.333 199.779 854.96C192.04 841.053 185.387 826.493 178.803 811.973C171.36 795.573 168.825 777.933 168.353 760.147C167.915 743.6 168.516 727.027 168.944 710.48C169.033 707.013 170.344 703.587 171.117 700.16C175.397 681.12 179.717 662.093 183.925 643.04C184.419 640.813 184.304 638.453 184.483 635.96C182.909 634.6 181.757 633.12 180.241 632.373C163.757 624.413 147.325 616.307 130.647 608.76C119.98 603.92 117.153 604.8 108.791 613.333C85.4546 637.133 73.6919 666.293 69.9906 698.933C65.6813 736.907 68.9399 774.44 77.6653 811.6C82.5266 832.293 87.0279 853.093 91.4719 873.88C98.9946 909.107 114.407 940.987 133.355 971.173C147.203 993.227 160.381 1015.51 171.783 1038.99C178.871 1053.57 190.989 1064.43 207.741 1068.12C229.1 1072.84 250.527 1077.25 271.928 1081.77C285.848 1084.72 299.107 1089.63 312.555 1094.21C346.665 1105.81 380.828 1118.11 416.587 1123.24C435.103 1125.89 454.325 1123.99 473.217 1123.56C483.836 1123.33 494.419 1121.76 505.037 1121.13C519.412 1120.27 533.024 1116.53 546.069 1110.68C552.505 1107.8 558.817 1104.48 562.643 1095.31" fill="#EA738D"/>
<path d="M832.827 608.72C848.701 597.8 862.316 588.453 875.893 579.053C880.591 575.813 882.491 571.12 883.304 565.533C884.665 556.173 886.727 546.933 888.263 537.6C893.095 508.227 904.489 480.84 913.312 452.653C927.816 406.32 940.696 359.453 946.139 311.08C949.187 284.04 949.107 256.6 942.972 229.813C940.761 220.16 936.215 210.92 931.876 201.907C927.529 192.88 921.996 184.427 917.193 175.6C907.797 158.347 895.328 143.253 883.099 128.08C873.012 115.56 863.233 102.92 857.168 88.0134C853.231 78.3334 846.421 73.5067 836.927 70.0667C815.832 62.4267 795.296 53.2268 774.157 45.7201C749.004 36.8001 723.024 30.2534 696.299 29.3067C674.091 28.52 652.973 34.9067 633.357 45.4667C623.989 50.5067 614.999 56.2535 605.747 61.5201C594.46 67.9468 582.748 73.68 571.812 80.64C551.848 93.36 531.915 106.267 518.451 126.627C516.497 129.573 514.288 132.387 511.973 135.067C495.697 153.933 483.097 175.413 468.905 195.76C463.296 203.8 458.296 212.413 455.975 224.427C477.06 216.667 496.171 208.88 517.679 208.96C519.935 205.64 522.36 202.36 524.479 198.893C554.277 150.213 610.44 138.293 651.017 151.2C662.839 154.96 674.44 159.44 686.333 162.933C703.384 167.933 716.528 178.667 728.984 190.587C734.109 195.48 739.429 200.213 744.163 205.48C751.783 213.947 761.373 217.787 772.392 218.56C803.18 220.72 830.957 232.573 858.161 245.76C886.691 259.573 904.023 283.907 911.003 313.6C917.903 342.947 911.563 371.213 891.053 394.92C888.345 398.04 885.268 400.867 882.708 404.107C877.235 411.027 870.644 417.48 866.901 425.267C855.647 448.707 844.323 472.227 839.58 498.16C836.067 517.36 832.352 536.52 828.963 555.747C825.944 572.867 828.196 589.613 832.827 608.72" fill="#EA738D"/>
<path d="M885.315 778.627C901.457 781.6 914.737 782.387 926.955 778.68C965.667 766.933 999.96 747.987 1022.85 712.92C1033.4 696.773 1038.84 678.533 1041.91 659.827C1044.37 644.72 1045.61 629.253 1045.64 613.933C1045.68 584.813 1048.81 556.133 1054.67 527.667C1056.93 516.68 1058.72 505.6 1060.77 494.573C1061.09 492.84 1061.37 491.027 1062.11 489.453C1077.45 457.213 1085.05 422.413 1095.67 388.6C1098.85 378.48 1102.25 368.36 1106.45 358.627C1115.96 336.573 1116.09 313.693 1112.76 290.64C1111.96 285.107 1108.75 279.347 1105.13 274.907C1097.71 265.76 1089.84 256.773 1081.07 248.933C1072.24 241.067 1061.76 235.907 1049.79 233.16C1030.21 228.68 1010.89 223.12 990.747 221.587C987.813 221.36 984.907 220.6 981.96 220.467C971.88 219.987 969.387 223.267 971.88 233.053C974.067 241.64 975.907 250.32 978.067 258.92C983.693 281.347 982.427 303.867 975.933 325.547C963.88 365.747 951.253 405.813 937.089 445.293C927.841 471.067 921.304 497.293 916.947 524.12C915.543 532.773 915.919 541.867 916.587 550.667C917.932 568.32 919.621 585.973 921.979 603.507C923.472 614.613 926.629 625.48 928.693 636.52C936.109 676.133 926.167 712.853 908.964 748.027C905.153 755.813 898.464 762.2 893.057 769.2C891.301 771.48 889.409 773.653 885.315 778.627" fill="#EA738D"/>
<path d="M1084.21 529.68C1081 538.907 1080.15 548.92 1080.52 558.773C1081.73 590.547 1076.15 621.267 1067.21 651.467C1062.19 668.48 1056.33 685.24 1050.63 702.04C1045.43 717.387 1036.61 730.613 1026.21 742.947C1006.59 766.227 984.627 786.693 957.44 800.933C951.24 804.187 947.347 808.92 945.379 815.48C937.085 843.04 921.957 867.347 906.583 891.053C886.22 922.44 860.512 949.507 830.116 971.84C822.06 977.76 814.883 984.853 807.017 991.053C801.484 995.427 795.84 999.907 789.611 1003.09C752.177 1022.24 712.537 1032.91 670.293 1033.47C659.677 1033.61 649.084 1035.01 638.469 1035.65C623.115 1036.59 607.757 1037.72 592.391 1037.96C586.628 1038.05 580.788 1036.04 575.057 1034.67C567 1032.76 559.056 1030.35 550.971 1028.59C548.397 1028.01 545.525 1028.81 541.495 1029.07C543.317 1041.61 550.151 1049.55 558.269 1056.41C575.781 1071.23 595.777 1081.13 618.473 1085.09C653.772 1091.25 689.147 1091.81 724.46 1085.39C743.212 1081.96 761.061 1075.81 777.344 1065.61C780.348 1063.72 783.317 1061.69 786.533 1060.24C809.705 1049.79 832.327 1037.63 856.329 1029.63C879.184 1022.01 903.323 1017.6 927.227 1013.95C953.213 1009.97 956.72 1011.72 971.973 983C976.947 973.653 980.44 963.453 983.853 953.373C990.093 934.893 995.213 916.027 1001.8 897.68C1010.07 874.627 1022.24 853.587 1039.36 835.933C1063.67 810.893 1089.04 786.88 1112.97 761.493C1129.16 744.307 1143.89 725.693 1151.93 702.853C1152.52 701.187 1153.31 699.587 1154.04 697.973C1170.56 661.413 1168.21 625.547 1149.65 590.507C1144.68 581.107 1139.52 571.587 1132.92 563.347C1122.2 549.947 1109.97 537.853 1093.69 530.947C1092.07 530.267 1090.37 529.667 1088.65 529.333C1087.55 529.12 1086.35 529.493 1084.21 529.68" fill="#EA738D"/>
<path d="M887.151 607.507C875.395 609.707 865.474 614.627 856.218 621.12C834.769 636.16 816.053 653.613 800.649 675.28C786.276 695.493 767.357 712.04 748.787 728.587C739.964 736.453 731.348 744.56 722.671 752.587C720.065 755 717.735 757.72 715.012 759.987C699.977 772.467 683.591 779.8 663.084 778.6C632.968 776.827 602.953 774.68 572.927 771.6C551.867 769.427 530.328 769.947 509.168 771.52C498.315 772.32 487.715 777.773 477.212 781.68C469.467 784.573 461.889 788.04 454.537 791.827C428.471 805.267 402.309 804.733 375.867 793.12C370.461 790.747 364.977 788.453 359.345 786.72C356.216 785.76 353.397 787.72 352.487 790.84C350.105 799.04 350.699 807.173 353.513 815.24C358.927 830.747 367.779 843.853 381.032 853.6C393.511 862.773 406.992 869.36 422.623 872.453C466.955 881.213 511.493 885.64 556.679 883.093C566.12 882.56 575.612 883.013 585.079 882.907C597.063 882.76 608.395 884.533 619.361 890.16C632.748 897.053 647.099 894.56 661.011 891.333C677.307 887.56 692.528 880.507 706.44 871.627C744.82 847.107 782.848 822.013 820.495 796.387C834.633 786.773 847.247 774.92 860.723 764.307C879.725 749.333 889.845 728.973 896.233 706.333C898 700.08 898.991 693.613 900.723 687.347C907.525 662.68 902.156 639.267 893.505 616.24C892.343 613.147 889.523 610.693 887.151 607.507" fill="#EA738D"/>
<path d="M739.199 693.427C737.549 687.627 733.479 686.24 729.4 685.707C714.652 683.747 700.067 683.773 685.64 688.64C667.567 694.72 649.061 697.453 629.825 695.28C595.476 691.4 562.808 682.24 530.84 668.92C499.837 655.987 467.231 656.68 435.081 665.507C424.859 668.32 415.609 674.04 408.064 681.947C405.633 684.493 403.216 687.12 400.452 689.267C397.209 691.787 391.388 689.147 390.896 684.893C390.569 682.053 390.277 678.6 391.565 676.32C394.417 671.28 397.599 666.04 401.833 662.2C421.72 644.133 445.544 637.054 472.115 638.587C479.035 638.987 485.953 641.107 494.327 638.454C491.811 634.334 489.949 630.867 487.701 627.68C475.799 610.76 463.497 594.107 451.927 576.973C442.012 562.28 432.999 546.987 423.365 532.107C419.851 526.68 416.164 521.213 411.751 516.533C395.455 499.24 380.376 481.147 370.301 459.36C369.379 457.36 367.601 455.76 365.553 453.107C353.827 462.88 345.759 474.467 341.673 488.12C330.659 524.92 319.871 561.84 318.52 600.693C317.984 616.053 316.383 631.4 316.409 646.747C316.436 660.293 317.388 673.92 319.152 687.347C321.072 701.973 324.4 716.4 327.111 730.933C328.837 740.173 333.216 747 342.295 751.187C354.087 756.614 365.453 763.027 376.837 769.307C394.685 779.16 413.879 781.093 433.616 778.8C439.345 778.147 444.969 775.653 450.379 773.36C459.636 769.467 468.485 764.547 477.863 760.987C505.109 750.64 533.284 744.654 562.523 743.72C587.34 742.934 612.165 741.987 636.947 740.48C657.749 739.2 677.703 733.547 697.144 726.293C714.763 719.707 728.149 707.653 739.199 693.427" fill="#EA738D"/>
<path d="M353.857 317.467C324.043 318.387 296.54 325.733 269.719 337.573C250.401 346.093 234.22 358.64 218.249 371.733C207.744 380.347 197.755 389.613 187.883 398.947C177.893 408.4 170.437 419.853 164.515 432.16C160.336 440.84 154.775 448.307 148.167 455.16C136.269 467.507 124.492 479.974 112.519 492.254C101.997 503.04 97.0532 515.747 98.0506 530.84C98.5346 538.147 100.796 544.52 105.476 550.333C112.636 559.213 121.173 566.493 130.783 572.347C153.509 586.2 176.567 599.493 201.611 608.88C219.865 615.72 238.265 622.187 256.419 629.28C263.524 632.053 270.137 636.093 276.96 639.573C280.469 641.36 283.947 643.213 289.121 645.92C289.5 639.52 290.015 635.04 289.992 630.547C289.893 611.627 289.884 592.707 289.384 573.787C288.361 535.014 297.279 498.574 316.157 464.92C324.495 450.054 334.977 436.307 345.349 422.72C350.377 416.134 352.307 410.347 351.201 401.787C348.077 377.6 350.243 353.413 354.329 329.413C354.817 326.547 355.035 323.64 355.273 320.733C355.316 320.227 354.845 319.68 353.857 317.467" fill="#EA738D"/>
<path d="M236.82 326.96C252.115 316.493 265.967 307.52 279.281 297.813C301.073 281.92 325.183 273.507 352.169 274.427C377.304 275.293 395.188 263.813 407.425 242.813C416.34 227.507 424.46 211.747 432.945 196.2C444.576 174.88 457.185 154.213 472.289 135.12C478.492 127.28 484.353 119.16 489.883 111.827C488.516 106.747 485.447 106.8 482.527 107.093C454.789 109.92 427.047 108.76 399.284 107.533C394.06 107.293 388.632 107.907 383.536 109.12C354.223 116.16 328.841 130.813 305.729 149.827C282.696 168.787 268.652 194.08 255.967 220.267C251.336 229.827 247.737 239.893 243.915 249.827C242.656 253.093 241.859 256.613 241.373 260.093C239.252 275.307 237.209 290.533 235.383 305.787C234.625 312.093 233.388 318.533 236.82 326.96" fill="#EA738D"/>
<path d="M526.413 304.947C535.409 305.307 538.619 299.68 542.444 295.547C554.203 282.867 567.445 272 582.335 263.373C600.904 252.64 620.593 248.493 641.985 254.533C654.096 257.947 663.384 264.24 669.139 275.4C671.829 280.627 674.253 286 676.488 291.44C689.404 322.853 707.635 350.973 729.429 376.88C733.972 382.28 739.081 387.093 746.143 390.627C748.456 388.227 751.107 386.52 752.285 384.093C758.465 371.36 765.099 358.76 766.472 344.28C766.861 340.173 767.617 336.093 768.372 332.027C772.079 312.133 768.831 293.56 759.721 275.387C750.941 257.867 740.755 241.36 729.009 225.787C723.339 218.267 716.999 211.227 710.656 204.24C693.245 185.08 671.108 177.147 645.639 177.373C643.276 177.387 640.899 177.413 638.547 177.213C606 174.52 580.173 188.72 557.044 209.64C544.367 221.12 536.919 235.933 531.792 251.773C526.315 268.693 523.656 286.16 526.413 304.947" fill="#EA738D"/>
<path d="M503.704 242.613C493.271 240.04 484.065 243.094 475.716 247.054C457.056 255.907 438.776 265.6 420.663 275.533C415.611 278.307 410.919 282.547 407.385 287.133C392.872 305.973 381.2 325.747 378.377 350.56C372.623 401.08 387.473 444.947 417.757 484.467C422.744 490.973 428.703 496.947 435.037 502.16C457.808 520.947 480.593 539.76 507.195 553.147C515.509 557.347 523.615 562.027 534.721 563.227C533.667 552.16 527.636 544.613 524.272 536.147C521.005 527.92 517.2 519.894 513.985 511.654C510.6 502.974 511.544 492.8 504.771 484.627C496.4 483.053 487.631 481.827 479.084 479.693C462.8 475.627 449.871 466.787 443.131 450.907C440.884 445.613 439.389 439.6 439.219 433.88C438.603 412.96 445.313 394.307 459.064 378.507C465.243 371.413 472.312 365.093 478.979 358.427C485.241 352.16 491.501 345.893 497.768 339.627C501.307 336.093 502.904 331.787 502.907 326.84C502.908 325.067 503.151 323.267 502.915 321.52C499.555 296.694 502.696 272.094 505.239 247.454C505.347 246.4 504.573 245.253 503.704 242.613" fill="#EA738D"/>
<path d="M812.988 459.507C809.172 461 807.011 461.6 805.084 462.64C799.889 465.427 794.883 468.587 789.641 471.293C767.089 482.933 744.317 494.147 721.951 506.133C707.345 513.96 693.969 523.667 682.463 535.827C673.933 544.827 664.877 553.333 656.279 562.267C635.603 583.773 632.109 617.04 648.075 642.307C652.151 648.747 657.083 654.693 662.036 660.52C666.191 665.4 671.776 666.96 678.097 665.32C678.668 665.173 679.261 665.107 679.824 664.933C701.915 658.013 724.163 659.96 746.439 663.76C748.768 664.16 751.113 664.52 753.397 665.12C765.616 668.28 775.199 664.12 783.488 655.093C788.119 650.053 790.843 644.613 791.171 637.747C792.244 615.36 793.807 593 794.555 570.6C795.408 545.067 800.156 520.213 806.16 495.533C808.925 484.16 811.544 472.787 812.988 459.507" fill="#EA738D"/>
<path d="M779.627 253.973C781.175 258.133 782.256 261.387 783.575 264.533C789.82 279.44 793.056 294.88 792.657 311.12C792.265 327.053 792.715 343.027 788.295 358.627C783.916 374.08 777.652 388.147 767.431 401.12C753.161 419.227 739.409 437.72 722.959 453.92C715.005 461.747 706.207 468.773 697.397 475.667C682.923 486.987 668.992 498.773 658.413 514.013C657.419 515.453 656.633 517.04 655.889 518.613C655.745 518.92 656.256 519.533 656.892 520.973C669.801 512.667 682.559 504.4 695.393 496.24C701.373 492.44 707.292 488.453 713.6 485.28C739.969 471.947 766.436 458.813 792.959 445.8C801.527 441.6 809.528 436.747 816.279 429.92C830.833 415.227 845.844 400.96 859.831 385.747C866.119 378.907 871.221 370.64 875.447 362.293C889.327 334.893 883.168 309.64 865.74 286.053C864.364 284.187 862.529 282.533 860.603 281.227C838.271 266.133 814.284 255.133 787.16 252.227C785.115 252.013 782.921 253.173 779.627 253.973" fill="#EA738D"/>
<path d="M653.445 487.52C656.603 485.04 659.891 483.32 661.999 480.653C669.697 470.933 682.207 466.413 689.325 456.84C686.673 450.053 681.779 447.653 676.948 445.533C666.644 441 656.169 437.013 644.705 436.28C626.996 435.16 609.3 433.787 591.604 432.493C576.271 431.36 560.757 431.307 545.652 428.8C523.333 425.107 504.707 414.04 490.763 395.813C488.371 392.68 486.075 389.48 482.741 384.973C473.252 401.147 470.264 417.04 471.713 433.72C472.359 441.133 477.323 446.84 483.18 451.04C492.915 458.013 503.581 463.147 515.936 463.24C524.809 463.307 533.771 463.813 542.54 462.813C561.033 460.693 579.097 462.84 597.224 466.12C612.524 468.893 626.999 473.693 640.608 481.213C644.687 483.467 648.979 485.333 653.445 487.52" fill="#EA738D"/>
<path d="M501.808 367.8C504.669 378.933 512.075 385.707 520.459 391.213C535.928 401.347 553.123 407.387 571.365 410.347C574.245 410.813 577.239 410.667 580.177 410.64C584.701 410.613 588.292 408.547 590.175 404.52C596.149 391.72 602.377 379 607.536 365.853C611.048 356.907 610.412 347.133 608.076 337.933C603.805 321.12 585.652 308.12 568.131 308.68C565.804 308.747 563.143 308.787 561.237 309.88C551.097 315.72 539.28 319.28 531.647 328.68C521.3 341.4 511.711 354.747 501.808 367.8" fill="#EA738D"/>
<path d="M475.783 569.88C479.845 577.507 482.069 582.067 484.636 586.427C492.72 600.16 500.907 613.827 509.101 627.493C516.291 639.493 525.395 648.573 539.712 652.453C559.639 657.853 579.12 664.88 598.912 670.813C606.233 673.013 613.827 674.56 621.405 675.573C628.277 676.48 635.503 677.52 642.443 672.333C641.784 670.053 641.727 667.507 640.469 665.893C631.319 654.147 623.619 641.693 619.451 627.24C618.072 622.453 614.919 619.573 609.847 617.853C598.699 614.08 587.872 609.373 576.836 605.253C569.116 602.387 561.365 599.507 553.459 597.24C538.155 592.827 522.632 589.16 507.405 584.52C500.697 582.467 494.487 578.773 488.065 575.8C485.037 574.387 482.051 572.907 475.783 569.88" fill="#EA738D"/>
<path d="M611.561 582.573C614.563 573.173 617.071 564.707 619.964 556.373C624.993 541.907 630.231 527.507 635.44 513.093C637.563 507.227 637.085 502.24 632.215 498.96C626.925 495.4 621.049 491.8 614.944 490.52C595.916 486.533 576.716 483.227 557.467 480.493C549.463 479.347 540.988 479.507 534.18 484.893C532.081 491.84 536.023 496.773 538.256 502.08C542.148 511.293 546.731 520.253 550.128 529.64C555.424 544.28 563.692 557.107 572.836 569.427C582.163 582 594.523 586.8 611.561 582.573" fill="#EA738D"/>
<path d="M593.912 283.347C601.48 288.547 608.777 292.48 614.741 297.894C626.18 308.267 631.803 321.614 631.88 337.227C631.941 349.667 630.552 361.76 627.039 373.854C624.108 383.934 622.972 394.6 621.664 405.094C621.033 410.147 624.067 412.987 628.708 413.374C633.739 413.787 636.82 411.974 638.323 407.574C638.891 405.907 639.367 404.174 639.615 402.44C642.571 381.907 649.44 362.414 655.037 342.56C657.572 333.574 659.041 324.094 659.475 314.76C659.795 307.867 658.104 300.747 656.516 293.92C653.969 282.947 646.728 276.307 635.429 275.72C627.281 275.307 619.043 276.36 610.86 276.96C604.932 277.387 599.303 278.893 593.912 283.347" fill="#EA738D"/>
<path d="M732.5 414.653C727.585 405.64 718.515 401.467 712.185 394.573C705.788 387.613 698.912 381.093 692.461 374.187C686.105 367.373 683.889 357.333 675.745 351.64C667.997 363.293 659.2 396.373 660.757 407.36C661.823 414.893 665.025 420.413 672.749 423.4C682.631 427.24 692.233 431.867 701.713 436.64C707.189 439.387 711.757 438.947 716.524 435.373C723.772 429.947 729.441 423.44 732.5 414.653" fill="#EA738D"/>
</svg>
